<svg width="281" height="68" viewBox="0 0 281 68" fill="none" xmlns="http://www.w3.org/2000/svg">
<path d="M2 68L2 3" stroke="black" stroke-width="4"/>
<path d="M68 68L68 3.3591" stroke="black" stroke-width="4"/>
<path d="M34.7375 44.5378L59.4078 7.66853L59.1453 24.0083L34.7375 62.2392L28.6662 53.1266L10.592 25.9984V7.66853L34.7375 44.5378Z" fill="white"/>
<path d="M10.592 67.8953V25.9984M34.7375 44.5378L59.4078 7.66853L59.1453 24.0083M34.7375 44.5378L10.592 7.66853V25.9984M34.7375 44.5378L28.6662 53.1266M59.1453 67.8953V24.0083M59.1453 24.0083L34.7375 62.2392L28.6662 53.1266M10.592 25.9984L28.6662 53.1266" stroke="black" stroke-width="4"/>
<mask id="path-5-outside-1_115_67" maskUnits="userSpaceOnUse" x="74" y="26" width="205" height="34" fill="black">
<rect fill="white" x="74" y="26" width="205" height="34"/>
<path d="M89.8352 58V53.52L89.6352 52.68V45.04C89.6352 43.4133 89.1552 42.16 88.1952 41.28C87.2618 40.3733 85.8485 39.92 83.9552 39.92C82.7018 39.92 81.4752 40.1333 80.2752 40.56C79.0752 40.96 78.0618 41.5067 77.2352 42.2L75.6352 39.32C76.7285 38.44 78.0352 37.7733 79.5552 37.32C81.1018 36.84 82.7152 36.6 84.3952 36.6C87.3018 36.6 89.5418 37.3067 91.1152 38.72C92.6885 40.1333 93.4752 42.2933 93.4752 45.2V58H89.8352ZM82.8752 58.24C81.3018 58.24 79.9152 57.9733 78.7152 57.44C77.5418 56.9067 76.6352 56.1733 75.9952 55.24C75.3552 54.28 75.0352 53.2 75.0352 52C75.0352 50.8533 75.3018 49.8133 75.8352 48.88C76.3952 47.9467 77.2885 47.2 78.5152 46.64C79.7685 46.08 81.4485 45.8 83.5552 45.8H90.2752V48.56H83.7152C81.7952 48.56 80.5018 48.88 79.8352 49.52C79.1685 50.16 78.8352 50.9333 78.8352 51.84C78.8352 52.88 79.2485 53.72 80.0752 54.36C80.9018 54.9733 82.0485 55.28 83.5152 55.28C84.9552 55.28 86.2085 54.96 87.2752 54.32C88.3685 53.68 89.1552 52.7467 89.6352 51.52L90.3952 54.16C89.8885 55.4133 88.9952 56.4133 87.7152 57.16C86.4352 57.88 84.8218 58.24 82.8752 58.24ZM107.861 58.24C105.728 58.24 104.075 57.6667 102.901 56.52C101.728 55.3733 101.141 53.7333 101.141 51.6V32.16H104.981V51.44C104.981 52.5867 105.261 53.4667 105.821 54.08C106.408 54.6933 107.235 55 108.301 55C109.501 55 110.501 54.6667 111.301 54L112.501 56.76C111.915 57.2667 111.208 57.64 110.381 57.88C109.581 58.12 108.741 58.24 107.861 58.24ZM97.5414 39.96V36.8H111.061V39.96H97.5414ZM117.144 58V36.8H120.824V42.56L120.464 41.12C121.051 39.6533 122.037 38.5333 123.424 37.76C124.811 36.9867 126.517 36.6 128.544 36.6V40.32C128.384 40.2933 128.224 40.28 128.064 40.28C127.931 40.28 127.797 40.28 127.664 40.28C125.611 40.28 123.984 40.8933 122.784 42.12C121.584 43.3467 120.984 45.12 120.984 47.44V58H117.144ZM133.277 58V36.8H137.117V58H133.277ZM135.197 32.72C134.45 32.72 133.823 32.48 133.317 32C132.837 31.52 132.597 30.9333 132.597 30.24C132.597 29.52 132.837 28.92 133.317 28.44C133.823 27.96 134.45 27.72 135.197 27.72C135.943 27.72 136.557 27.96 137.037 28.44C137.543 28.8933 137.797 29.4667 137.797 30.16C137.797 30.88 137.557 31.4933 137.077 32C136.597 32.48 135.97 32.72 135.197 32.72ZM153.689 58.24C151.529 58.24 149.595 57.7733 147.889 56.84C146.209 55.9067 144.889 54.6267 143.929 53C142.969 51.3733 142.489 49.5067 142.489 47.4C142.489 45.2933 142.969 43.4267 143.929 41.8C144.889 40.1733 146.209 38.9067 147.889 38C149.595 37.0667 151.529 36.6 153.689 36.6C155.609 36.6 157.315 36.9867 158.809 37.76C160.329 38.5067 161.502 39.6267 162.329 41.12L159.409 43C158.715 41.96 157.862 41.2 156.849 40.72C155.862 40.2133 154.795 39.96 153.649 39.96C152.262 39.96 151.022 40.2667 149.929 40.88C148.835 41.4933 147.969 42.36 147.329 43.48C146.689 44.5733 146.369 45.88 146.369 47.4C146.369 48.92 146.689 50.24 147.329 51.36C147.969 52.48 148.835 53.3467 149.929 53.96C151.022 54.5733 152.262 54.88 153.649 54.88C154.795 54.88 155.862 54.64 156.849 54.16C157.862 53.6533 158.715 52.88 159.409 51.84L162.329 53.68C161.502 55.1467 160.329 56.28 158.809 57.08C157.315 57.8533 155.609 58.24 153.689 58.24ZM176.22 58.24C174.407 58.24 172.807 57.9067 171.42 57.24C170.06 56.5733 168.993 55.56 168.22 54.2C167.473 52.8133 167.1 51.08 167.1 49V36.8H170.94V48.56C170.94 50.64 171.433 52.2 172.42 53.24C173.433 54.28 174.847 54.8 176.66 54.8C177.993 54.8 179.153 54.5333 180.14 54C181.127 53.44 181.887 52.64 182.42 51.6C182.953 50.5333 183.22 49.2533 183.22 47.76V36.8H187.06V58H183.42V52.28L184.02 53.8C183.327 55.2133 182.287 56.3067 180.9 57.08C179.513 57.8533 177.953 58.24 176.22 58.24ZM194.37 58V28.32H198.21V58H194.37ZM218.702 58V53.52L218.502 52.68V45.04C218.502 43.4133 218.022 42.16 217.062 41.28C216.129 40.3733 214.716 39.92 212.822 39.92C211.569 39.92 210.342 40.1333 209.142 40.56C207.942 40.96 206.929 41.5067 206.102 42.2L204.502 39.32C205.596 38.44 206.902 37.7733 208.422 37.32C209.969 36.84 211.582 36.6 213.262 36.6C216.169 36.6 218.409 37.3067 219.982 38.72C221.556 40.1333 222.342 42.2933 222.342 45.2V58H218.702ZM211.742 58.24C210.169 58.24 208.782 57.9733 207.582 57.44C206.409 56.9067 205.502 56.1733 204.862 55.24C204.222 54.28 203.902 53.2 203.902 52C203.902 50.8533 204.169 49.8133 204.702 48.88C205.262 47.9467 206.156 47.2 207.382 46.64C208.636 46.08 210.316 45.8 212.422 45.8H219.142V48.56H212.582C210.662 48.56 209.369 48.88 208.702 49.52C208.036 50.16 207.702 50.9333 207.702 51.84C207.702 52.88 208.116 53.72 208.942 54.36C209.769 54.9733 210.916 55.28 212.382 55.28C213.822 55.28 215.076 54.96 216.142 54.32C217.236 53.68 218.022 52.7467 218.502 51.52L219.262 54.16C218.756 55.4133 217.862 56.4133 216.582 57.16C215.302 57.88 213.689 58.24 211.742 58.24ZM244.351 58.32C242.697 58.32 241.151 57.9733 239.711 57.28C238.271 56.5867 237.097 55.5867 236.191 54.28L238.511 51.56C239.284 52.6267 240.151 53.4533 241.111 54.04C242.097 54.6 243.177 54.88 244.351 54.88C247.551 54.88 249.151 52.9867 249.151 49.2V33.48H239.031V30H253.111V49C253.111 52.12 252.364 54.4533 250.871 56C249.404 57.5467 247.231 58.32 244.351 58.32ZM273.859 58V53.52L273.659 52.68V45.04C273.659 43.4133 273.179 42.16 272.219 41.28C271.285 40.3733 269.872 39.92 267.979 39.92C266.725 39.92 265.499 40.1333 264.299 40.56C263.099 40.96 262.085 41.5067 261.259 42.2L259.659 39.32C260.752 38.44 262.059 37.7733 263.579 37.32C265.125 36.84 266.739 36.6 268.419 36.6C271.325 36.6 273.565 37.3067 275.139 38.72C276.712 40.1333 277.499 42.2933 277.499 45.2V58H273.859ZM266.899 58.24C265.325 58.24 263.939 57.9733 262.739 57.44C261.565 56.9067 260.659 56.1733 260.019 55.24C259.379 54.28 259.059 53.2 259.059 52C259.059 50.8533 259.325 49.8133 259.859 48.88C260.419 47.9467 261.312 47.2 262.539 46.64C263.792 46.08 265.472 45.8 267.579 45.8H274.299V48.56H267.739C265.819 48.56 264.525 48.88 263.859 49.52C263.192 50.16 262.859 50.9333 262.859 51.84C262.859 52.88 263.272 53.72 264.099 54.36C264.925 54.9733 266.072 55.28 267.539 55.28C268.979 55.28 270.232 54.96 271.299 54.32C272.392 53.68 273.179 52.7467 273.659 51.52L274.419 54.16C273.912 55.4133 273.019 56.4133 271.739 57.16C270.459 57.88 268.845 58.24 266.899 58.24ZM265.699 33.72L271.139 28.52H276.019L269.299 33.72H265.699Z"/>
</mask>
<path d="M89.8352 58V53.52L89.6352 52.68V45.04C89.6352 43.4133 89.1552 42.16 88.1952 41.28C87.2618 40.3733 85.8485 39.92 83.9552 39.92C82.7018 39.92 81.4752 40.1333 80.2752 40.56C79.0752 40.96 78.0618 41.5067 77.2352 42.2L75.6352 39.32C76.7285 38.44 78.0352 37.7733 79.5552 37.32C81.1018 36.84 82.7152 36.6 84.3952 36.6C87.3018 36.6 89.5418 37.3067 91.1152 38.72C92.6885 40.1333 93.4752 42.2933 93.4752 45.2V58H89.8352ZM82.8752 58.24C81.3018 58.24 79.9152 57.9733 78.7152 57.44C77.5418 56.9067 76.6352 56.1733 75.9952 55.24C75.3552 54.28 75.0352 53.2 75.0352 52C75.0352 50.8533 75.3018 49.8133 75.8352 48.88C76.3952 47.9467 77.2885 47.2 78.5152 46.64C79.7685 46.08 81.4485 45.8 83.5552 45.8H90.2752V48.56H83.7152C81.7952 48.56 80.5018 48.88 79.8352 49.52C79.1685 50.16 78.8352 50.9333 78.8352 51.84C78.8352 52.88 79.2485 53.72 80.0752 54.36C80.9018 54.9733 82.0485 55.28 83.5152 55.28C84.9552 55.28 86.2085 54.96 87.2752 54.32C88.3685 53.68 89.1552 52.7467 89.6352 51.52L90.3952 54.16C89.8885 55.4133 88.9952 56.4133 87.7152 57.16C86.4352 57.88 84.8218 58.24 82.8752 58.24ZM107.861 58.24C105.728 58.24 104.075 57.6667 102.901 56.52C101.728 55.3733 101.141 53.7333 101.141 51.6V32.16H104.981V51.44C104.981 52.5867 105.261 53.4667 105.821 54.08C106.408 54.6933 107.235 55 108.301 55C109.501 55 110.501 54.6667 111.301 54L112.501 56.76C111.915 57.2667 111.208 57.64 110.381 57.88C109.581 58.12 108.741 58.24 107.861 58.24ZM97.5414 39.96V36.8H111.061V39.96H97.5414ZM117.144 58V36.8H120.824V42.56L120.464 41.12C121.051 39.6533 122.037 38.5333 123.424 37.76C124.811 36.9867 126.517 36.6 128.544 36.6V40.32C128.384 40.2933 128.224 40.28 128.064 40.28C127.931 40.28 127.797 40.28 127.664 40.28C125.611 40.28 123.984 40.8933 122.784 42.12C121.584 43.3467 120.984 45.12 120.984 47.44V58H117.144ZM133.277 58V36.8H137.117V58H133.277ZM135.197 32.72C134.45 32.72 133.823 32.48 133.317 32C132.837 31.52 132.597 30.9333 132.597 30.24C132.597 29.52 132.837 28.92 133.317 28.44C133.823 27.96 134.45 27.72 135.197 27.72C135.943 27.72 136.557 27.96 137.037 28.44C137.543 28.8933 137.797 29.4667 137.797 30.16C137.797 30.88 137.557 31.4933 137.077 32C136.597 32.48 135.97 32.72 135.197 32.72ZM153.689 58.24C151.529 58.24 149.595 57.7733 147.889 56.84C146.209 55.9067 144.889 54.6267 143.929 53C142.969 51.3733 142.489 49.5067 142.489 47.4C142.489 45.2933 142.969 43.4267 143.929 41.8C144.889 40.1733 146.209 38.9067 147.889 38C149.595 37.0667 151.529 36.6 153.689 36.6C155.609 36.6 157.315 36.9867 158.809 37.76C160.329 38.5067 161.502 39.6267 162.329 41.12L159.409 43C158.715 41.96 157.862 41.2 156.849 40.72C155.862 40.2133 154.795 39.96 153.649 39.96C152.262 39.96 151.022 40.2667 149.929 40.88C148.835 41.4933 147.969 42.36 147.329 43.48C146.689 44.5733 146.369 45.88 146.369 47.4C146.369 48.92 146.689 50.24 147.329 51.36C147.969 52.48 148.835 53.3467 149.929 53.96C151.022 54.5733 152.262 54.88 153.649 54.88C154.795 54.88 155.862 54.64 156.849 54.16C157.862 53.6533 158.715 52.88 159.409 51.84L162.329 53.68C161.502 55.1467 160.329 56.28 158.809 57.08C157.315 57.8533 155.609 58.24 153.689 58.24ZM176.22 58.24C174.407 58.24 172.807 57.9067 171.42 57.24C170.06 56.5733 168.993 55.56 168.22 54.2C167.473 52.8133 167.1 51.08 167.1 49V36.8H170.94V48.56C170.94 50.64 171.433 52.2 172.42 53.24C173.433 54.28 174.847 54.8 176.66 54.8C177.993 54.8 179.153 54.5333 180.14 54C181.127 53.44 181.887 52.64 182.42 51.6C182.953 50.5333 183.22 49.2533 183.22 47.76V36.8H187.06V58H183.42V52.28L184.02 53.8C183.327 55.2133 182.287 56.3067 180.9 57.08C179.513 57.8533 177.953 58.24 176.22 58.24ZM194.37 58V28.32H198.21V58H194.37ZM218.702 58V53.52L218.502 52.68V45.04C218.502 43.4133 218.022 42.16 217.062 41.28C216.129 40.3733 214.716 39.92 212.822 39.92C211.569 39.92 210.342 40.1333 209.142 40.56C207.942 40.96 206.929 41.5067 206.102 42.2L204.502 39.32C205.596 38.44 206.902 37.7733 208.422 37.32C209.969 36.84 211.582 36.6 213.262 36.6C216.169 36.6 218.409 37.3067 219.982 38.72C221.556 40.1333 222.342 42.2933 222.342 45.2V58H218.702ZM211.742 58.24C210.169 58.24 208.782 57.9733 207.582 57.44C206.409 56.9067 205.502 56.1733 204.862 55.24C204.222 54.28 203.902 53.2 203.902 52C203.902 50.8533 204.169 49.8133 204.702 48.88C205.262 47.9467 206.156 47.2 207.382 46.64C208.636 46.08 210.316 45.8 212.422 45.8H219.142V48.56H212.582C210.662 48.56 209.369 48.88 208.702 49.52C208.036 50.16 207.702 50.9333 207.702 51.84C207.702 52.88 208.116 53.72 208.942 54.36C209.769 54.9733 210.916 55.28 212.382 55.28C213.822 55.28 215.076 54.96 216.142 54.32C217.236 53.68 218.022 52.7467 218.502 51.52L219.262 54.16C218.756 55.4133 217.862 56.4133 216.582 57.16C215.302 57.88 213.689 58.24 211.742 58.24ZM244.351 58.32C242.697 58.32 241.151 57.9733 239.711 57.28C238.271 56.5867 237.097 55.5867 236.191 54.28L238.511 51.56C239.284 52.6267 240.151 53.4533 241.111 54.04C242.097 54.6 243.177 54.88 244.351 54.88C247.551 54.88 249.151 52.9867 249.151 49.2V33.48H239.031V30H253.111V49C253.111 52.12 252.364 54.4533 250.871 56C249.404 57.5467 247.231 58.32 244.351 58.32ZM273.859 58V53.52L273.659 52.68V45.04C273.659 43.4133 273.179 42.16 272.219 41.28C271.285 40.3733 269.872 39.92 267.979 39.92C266.725 39.92 265.499 40.1333 264.299 40.56C263.099 40.96 262.085 41.5067 261.259 42.2L259.659 39.32C260.752 38.44 262.059 37.7733 263.579 37.32C265.125 36.84 266.739 36.6 268.419 36.6C271.325 36.6 273.565 37.3067 275.139 38.72C276.712 40.1333 277.499 42.2933 277.499 45.2V58H273.859ZM266.899 58.24C265.325 58.24 263.939 57.9733 262.739 57.44C261.565 56.9067 260.659 56.1733 260.019 55.24C259.379 54.28 259.059 53.2 259.059 52C259.059 50.8533 259.325 49.8133 259.859 48.88C260.419 47.9467 261.312 47.2 262.539 46.64C263.792 46.08 265.472 45.8 267.579 45.8H274.299V48.56H267.739C265.819 48.56 264.525 48.88 263.859 49.52C263.192 50.16 262.859 50.9333 262.859 51.84C262.859 52.88 263.272 53.72 264.099 54.36C264.925 54.9733 266.072 55.28 267.539 55.28C268.979 55.28 270.232 54.96 271.299 54.32C272.392 53.68 273.179 52.7467 273.659 51.52L274.419 54.16C273.912 55.4133 273.019 56.4133 271.739 57.16C270.459 57.88 268.845 58.24 266.899 58.24ZM265.699 33.72L271.139 28.52H276.019L269.299 33.72H265.699Z" fill="black"/>
<path d="M89.8352 58H88.8352V59H89.8352V58ZM89.8352 53.52H90.8352V53.4026L90.808 53.2884L89.8352 53.52ZM89.6352 52.68H88.6352V52.7974L88.6624 52.9116L89.6352 52.68ZM88.1952 41.28L87.4984 41.9973L87.5088 42.0074L87.5194 42.0172L88.1952 41.28ZM80.2752 40.56L80.5914 41.5087L80.6008 41.5055L80.6102 41.5022L80.2752 40.56ZM77.2352 42.2L76.361 42.6856L76.9494 43.7448L77.8778 42.9662L77.2352 42.2ZM75.6352 39.32L75.0081 38.541L74.3519 39.0692L74.761 39.8056L75.6352 39.32ZM79.5552 37.32L79.841 38.2783L79.8516 38.2751L79.5552 37.32ZM93.4752 58V59H94.4752V58H93.4752ZM78.7152 57.44L78.3013 58.3504L78.309 58.3538L78.7152 57.44ZM75.9952 55.24L75.163 55.7947L75.1704 55.8055L75.9952 55.24ZM75.8352 48.88L74.9777 48.3655L74.9722 48.3746L74.9669 48.3839L75.8352 48.88ZM78.5152 46.64L78.1072 45.727L78.0999 45.7303L78.5152 46.64ZM90.2752 45.8H91.2752V44.8H90.2752V45.8ZM90.2752 48.56V49.56H91.2752V48.56H90.2752ZM79.8352 49.52L79.1426 48.7986L79.1426 48.7986L79.8352 49.52ZM80.0752 54.36L79.463 55.1507L79.4711 55.157L79.4793 55.1631L80.0752 54.36ZM87.2752 54.32L86.7699 53.4569L86.7607 53.4625L87.2752 54.32ZM89.6352 51.52L90.5961 51.2434L89.7795 48.4068L88.7039 51.1556L89.6352 51.52ZM90.3952 54.16L91.3223 54.5348L91.4516 54.2149L91.3561 53.8834L90.3952 54.16ZM87.7152 57.16L88.2054 58.0316L88.2123 58.0277L88.219 58.0238L87.7152 57.16ZM90.8352 58V53.52H88.8352V58H90.8352ZM90.808 53.2884L90.608 52.4484L88.6624 52.9116L88.8624 53.7516L90.808 53.2884ZM90.6352 52.68V45.04H88.6352V52.68H90.6352ZM90.6352 45.04C90.6352 43.2078 90.0869 41.6575 88.8709 40.5428L87.5194 42.0172C88.2234 42.6625 88.6352 43.6188 88.6352 45.04H90.6352ZM88.8919 40.5627C87.7017 39.4065 85.9908 38.92 83.9552 38.92V40.92C85.7062 40.92 86.8219 41.3401 87.4984 41.9973L88.8919 40.5627ZM83.9552 38.92C82.5858 38.92 81.2459 39.1535 79.9401 39.6178L80.6102 41.5022C81.7044 41.1132 82.8178 40.92 83.9552 40.92V38.92ZM79.9589 39.6113C78.6598 40.0443 77.5306 40.647 76.5925 41.4338L77.8778 42.9662C78.593 42.3663 79.4905 41.8757 80.5914 41.5087L79.9589 39.6113ZM78.1093 41.7144L76.5093 38.8344L74.761 39.8056L76.361 42.6856L78.1093 41.7144ZM76.2622 40.099C77.2422 39.3102 78.4291 38.6994 79.841 38.2783L79.2694 36.3617C77.6412 36.8473 76.2148 37.5698 75.0081 38.541L76.2622 40.099ZM79.8516 38.2751C81.2987 37.826 82.8119 37.6 84.3952 37.6V35.6C82.6184 35.6 80.905 35.854 79.2588 36.3649L79.8516 38.2751ZM84.3952 37.6C87.148 37.6 89.1161 38.2685 90.4469 39.4639L91.7834 37.9761C89.9675 36.3449 87.4556 35.6 84.3952 35.6V37.6ZM90.4469 39.4639C91.7389 40.6246 92.4752 42.4667 92.4752 45.2H94.4752C94.4752 42.12 93.6381 39.6421 91.7834 37.9761L90.4469 39.4639ZM92.4752 45.2V58H94.4752V45.2H92.4752ZM93.4752 57H89.8352V59H93.4752V57ZM82.8752 57.24C81.4145 57.24 80.1707 56.9926 79.1213 56.5262L78.309 58.3538C79.6596 58.9541 81.1891 59.24 82.8752 59.24V57.24ZM79.129 56.5296C78.0979 56.061 77.3432 55.4376 76.8199 54.6745L75.1704 55.8055C75.9271 56.9091 76.9857 57.7523 78.3014 58.3504L79.129 56.5296ZM76.8272 54.6853C76.3013 53.8964 76.0352 53.0109 76.0352 52H74.0352C74.0352 53.3891 74.409 54.6636 75.1631 55.7947L76.8272 54.6853ZM76.0352 52C76.0352 51.0153 76.2622 50.1483 76.7034 49.3761L74.9669 48.3839C74.3415 49.4784 74.0352 50.6913 74.0352 52H76.0352ZM76.6926 49.3945C77.1261 48.6721 77.8435 48.0459 78.9304 47.5497L78.0999 45.7303C76.7335 46.3541 75.6642 47.2212 74.9777 48.3655L76.6926 49.3945ZM78.9231 47.553C79.998 47.0727 81.5214 46.8 83.5552 46.8V44.8C81.3756 44.8 79.5389 45.0873 78.1072 45.727L78.9231 47.553ZM83.5552 46.8H90.2752V44.8H83.5552V46.8ZM89.2752 45.8V48.56H91.2752V45.8H89.2752ZM90.2752 47.56H83.7152V49.56H90.2752V47.56ZM83.7152 47.56C82.7065 47.56 81.8163 47.6434 81.065 47.8293C80.3189 48.0139 79.646 48.3153 79.1426 48.7986L80.5277 50.2414C80.6909 50.0847 80.9981 49.9061 81.5453 49.7707C82.0873 49.6366 82.8039 49.56 83.7152 49.56V47.56ZM79.1426 48.7986C78.2838 49.6231 77.8352 50.6552 77.8352 51.84H79.8352C79.8352 51.2115 80.0532 50.6969 80.5277 50.2414L79.1426 48.7986ZM77.8352 51.84C77.8352 53.1913 78.3932 54.3225 79.463 55.1507L80.6873 53.5693C80.1038 53.1175 79.8352 52.5687 79.8352 51.84H77.8352ZM79.4793 55.1631C80.5378 55.9484 81.9222 56.28 83.5152 56.28V54.28C82.1748 54.28 81.2658 53.9982 80.671 53.5569L79.4793 55.1631ZM83.5152 56.28C85.1074 56.28 86.5444 55.9246 87.7897 55.1775L86.7607 53.4625C85.8725 53.9954 84.8029 54.28 83.5152 54.28V56.28ZM87.7803 55.183C89.0759 54.4247 90.008 53.3115 90.5664 51.8844L88.7039 51.1556C88.3023 52.1819 87.6611 52.9353 86.77 53.457L87.7803 55.183ZM88.6742 51.7966L89.4342 54.4366L91.3561 53.8834L90.5961 51.2434L88.6742 51.7966ZM89.468 53.7852C89.0525 54.8132 88.3195 55.6498 87.2113 56.2962L88.219 58.0238C89.6709 57.1769 90.7245 56.0135 91.3223 54.5348L89.468 53.7852ZM87.2249 56.2884C86.1355 56.9012 84.7041 57.24 82.8752 57.24V59.24C84.9395 59.24 86.7348 58.8588 88.2054 58.0316L87.2249 56.2884ZM102.901 56.52L102.202 57.2352L102.202 57.2352L102.901 56.52ZM101.141 32.16V31.16H100.141V32.16H101.141ZM104.981 32.16H105.981V31.16H104.981V32.16ZM105.821 54.08L105.083 54.7543L105.091 54.7628L105.099 54.7712L105.821 54.08ZM111.301 54L112.218 53.6013L111.686 52.3775L110.661 53.2318L111.301 54ZM112.501 56.76L113.155 57.5168L113.712 57.036L113.418 56.3613L112.501 56.76ZM110.381 57.88L110.103 56.9196L110.094 56.9222L110.381 57.88ZM97.5414 39.96H96.5414V40.96H97.5414V39.96ZM97.5414 36.8V35.8H96.5414V36.8H97.5414ZM111.061 36.8H112.061V35.8H111.061V36.8ZM111.061 39.96V40.96H112.061V39.96H111.061ZM107.861 57.24C105.908 57.24 104.536 56.7189 103.6 55.8048L102.202 57.2352C103.614 58.6144 105.548 59.24 107.861 59.24V57.24ZM103.6 55.8048C102.673 54.8982 102.141 53.5487 102.141 51.6H100.141C100.141 53.918 100.784 55.8485 102.202 57.2352L103.6 55.8048ZM102.141 51.6V32.16H100.141V51.6H102.141ZM101.141 33.16H104.981V31.16H101.141V33.16ZM103.981 32.16V51.44H105.981V32.16H103.981ZM103.981 51.44C103.981 52.7406 104.3 53.8965 105.083 54.7543L106.56 53.4057C106.223 53.0368 105.981 52.4327 105.981 51.44H103.981ZM105.099 54.7712C105.92 55.6298 107.036 56 108.301 56V54C107.433 54 106.896 53.7569 106.544 53.3888L105.099 54.7712ZM108.301 56C109.698 56 110.935 55.6071 111.942 54.7682L110.661 53.2318C110.068 53.7263 109.305 54 108.301 54V56ZM110.384 54.3987L111.584 57.1587L113.418 56.3613L112.218 53.6013L110.384 54.3987ZM111.848 56.0032C111.381 56.4059 110.807 56.7153 110.103 56.9197L110.66 58.8403C111.61 58.5647 112.448 58.1274 113.155 57.5168L111.848 56.0032ZM110.094 56.9222C109.392 57.1327 108.649 57.24 107.861 57.24V59.24C108.834 59.24 109.771 59.1073 110.669 58.8378L110.094 56.9222ZM98.5414 39.96V36.8H96.5414V39.96H98.5414ZM97.5414 37.8H111.061V35.8H97.5414V37.8ZM110.061 36.8V39.96H112.061V36.8H110.061ZM111.061 38.96H97.5414V40.96H111.061V38.96ZM117.144 58H116.144V59H117.144V58ZM117.144 36.8V35.8H116.144V36.8H117.144ZM120.824 36.8H121.824V35.8H120.824V36.8ZM120.824 42.56L119.854 42.8025L121.824 42.56H120.824ZM120.464 41.12L119.535 40.7486L119.415 41.0488L119.494 41.3625L120.464 41.12ZM123.424 37.76L122.937 36.8866L122.937 36.8866L123.424 37.76ZM128.544 36.6H129.544V35.6H128.544V36.6ZM128.544 40.32L128.38 41.3064L129.544 41.5005V40.32H128.544ZM120.984 58V59H121.984V58H120.984ZM118.144 58V36.8H116.144V58H118.144ZM117.144 37.8H120.824V35.8H117.144V37.8ZM119.824 36.8V42.56H121.824V36.8H119.824ZM121.794 42.3175L121.434 40.8775L119.494 41.3625L119.854 42.8025L121.794 42.3175ZM121.392 41.4914C121.893 40.2389 122.724 39.2956 123.911 38.6334L122.937 36.8866C121.351 37.7711 120.208 39.0678 119.535 40.7486L121.392 41.4914ZM123.911 38.6334C125.113 37.963 126.642 37.6 128.544 37.6V35.6C126.393 35.6 124.508 36.0104 122.937 36.8866L123.911 38.6334ZM127.544 36.6V40.32H129.544V36.6H127.544ZM128.708 39.3336C128.495 39.298 128.28 39.28 128.064 39.28V41.28C128.168 41.28 128.273 41.2887 128.38 41.3064L128.708 39.3336ZM128.064 39.28C128.064 39.28 128.063 39.28 128.063 39.28C128.063 39.28 128.063 39.28 128.062 39.28C128.062 39.28 128.062 39.28 128.062 39.28C128.061 39.28 128.061 39.28 128.061 39.28C128.061 39.28 128.06 39.28 128.06 39.28C128.06 39.28 128.059 39.28 128.059 39.28C128.059 39.28 128.059 39.28 128.058 39.28C128.058 39.28 128.058 39.28 128.058 39.28C128.057 39.28 128.057 39.28 128.057 39.28C128.057 39.28 128.056 39.28 128.056 39.28C128.056 39.28 128.056 39.28 128.055 39.28C128.055 39.28 128.055 39.28 128.055 39.28C128.054 39.28 128.054 39.28 128.054 39.28C128.053 39.28 128.053 39.28 128.053 39.28C128.053 39.28 128.052 39.28 128.052 39.28C128.052 39.28 128.052 39.28 128.051 39.28C128.051 39.28 128.051 39.28 128.051 39.28C128.05 39.28 128.05 39.28 128.05 39.28C128.05 39.28 128.049 39.28 128.049 39.28C128.049 39.28 128.049 39.28 128.048 39.28C128.048 39.28 128.048 39.28 128.048 39.28C128.047 39.28 128.047 39.28 128.047 39.28C128.046 39.28 128.046 39.28 128.046 39.28C128.046 39.28 128.045 39.28 128.045 39.28C128.045 39.28 128.045 39.28 128.044 39.28C128.044 39.28 128.044 39.28 128.044 39.28C128.043 39.28 128.043 39.28 128.043 39.28C128.043 39.28 128.042 39.28 128.042 39.28C128.042 39.28 128.042 39.28 128.041 39.28C128.041 39.28 128.041 39.28 128.04 39.28C128.04 39.28 128.04 39.28 128.04 39.28C128.039 39.28 128.039 39.28 128.039 39.28C128.039 39.28 128.038 39.28 128.038 39.28C128.038 39.28 128.038 39.28 128.037 39.28C128.037 39.28 128.037 39.28 128.037 39.28C128.036 39.28 128.036 39.28 128.036 39.28C128.036 39.28 128.035 39.28 128.035 39.28C128.035 39.28 128.034 39.28 128.034 39.28C128.034 39.28 128.034 39.28 128.033 39.28C128.033 39.28 128.033 39.28 128.033 39.28C128.032 39.28 128.032 39.28 128.032 39.28C128.032 39.28 128.031 39.28 128.031 39.28C128.031 39.28 128.031 39.28 128.03 39.28C128.03 39.28 128.03 39.28 128.03 39.28C128.029 39.28 128.029 39.28 128.029 39.28C128.028 39.28 128.028 39.28 128.028 39.28C128.028 39.28 128.027 39.28 128.027 39.28C128.027 39.28 128.027 39.28 128.026 39.28C128.026 39.28 128.026 39.28 128.026 39.28C128.025 39.28 128.025 39.28 128.025 39.28C128.025 39.28 128.024 39.28 128.024 39.28C128.024 39.28 128.024 39.28 128.023 39.28C128.023 39.28 128.023 39.28 128.023 39.28C128.022 39.28 128.022 39.28 128.022 39.28C128.021 39.28 128.021 39.28 128.021 39.28C128.021 39.28 128.02 39.28 128.02 39.28C128.02 39.28 128.02 39.28 128.019 39.28C128.019 39.28 128.019 39.28 128.019 39.28C128.018 39.28 128.018 39.28 128.018 39.28C128.018 39.28 128.017 39.28 128.017 39.28C128.017 39.28 128.017 39.28 128.016 39.28C128.016 39.28 128.016 39.28 128.015 39.28C128.015 39.28 128.015 39.28 128.015 39.28C128.014 39.28 128.014 39.28 128.014 39.28C128.014 39.28 128.013 39.28 128.013 39.28C128.013 39.28 128.013 39.28 128.012 39.28C128.012 39.28 128.012 39.28 128.012 39.28C128.011 39.28 128.011 39.28 128.011 39.28C128.011 39.28 128.01 39.28 128.01 39.28C128.01 39.28 128.009 39.28 128.009 39.28C128.009 39.28 128.009 39.28 128.008 39.28C128.008 39.28 128.008 39.28 128.008 39.28C128.007 39.28 128.007 39.28 128.007 39.28C128.007 39.28 128.006 39.28 128.006 39.28C128.006 39.28 128.006 39.28 128.005 39.28C128.005 39.28 128.005 39.28 128.005 39.28C128.004 39.28 128.004 39.28 128.004 39.28C128.003 39.28 128.003 39.28 128.003 39.28C128.003 39.28 128.002 39.28 128.002 39.28C128.002 39.28 128.002 39.28 128.001 39.28C128.001 39.28 128.001 39.28 128.001 39.28C128 39.28 128 39.28 128 39.28C128 39.28 127.999 39.28 127.999 39.28C127.999 39.28 127.999 39.28 127.998 39.28C127.998 39.28 127.998 39.28 127.998 39.28C127.997 39.28 127.997 39.28 127.997 39.28C127.996 39.28 127.996 39.28 127.996 39.28C127.996 39.28 127.995 39.28 127.995 39.28C127.995 39.28 127.995 39.28 127.994 39.28C127.994 39.28 127.994 39.28 127.994 39.28C127.993 39.28 127.993 39.28 127.993 39.28C127.993 39.28 127.992 39.28 127.992 39.28C127.992 39.28 127.992 39.28 127.991 39.28C127.991 39.28 127.991 39.28 127.99 39.28C127.99 39.28 127.99 39.28 127.99 39.28C127.989 39.28 127.989 39.28 127.989 39.28C127.989 39.28 127.988 39.28 127.988 39.28C127.988 39.28 127.988 39.28 127.987 39.28C127.987 39.28 127.987 39.28 127.987 39.28C127.986 39.28 127.986 39.28 127.986 39.28C127.986 39.28 127.985 39.28 127.985 39.28C127.985 39.28 127.984 39.28 127.984 39.28C127.984 39.28 127.984 39.28 127.983 39.28C127.983 39.28 127.983 39.28 127.983 39.28C127.982 39.28 127.982 39.28 127.982 39.28C127.982 39.28 127.981 39.28 127.981 39.28C127.981 39.28 127.981 39.28 127.98 39.28C127.98 39.28 127.98 39.28 127.98 39.28C127.979 39.28 127.979 39.28 127.979 39.28C127.978 39.28 127.978 39.28 127.978 39.28C127.978 39.28 127.977 39.28 127.977 39.28C127.977 39.28 127.977 39.28 127.976 39.28C127.976 39.28 127.976 39.28 127.976 39.28C127.975 39.28 127.975 39.28 127.975 39.28C127.975 39.28 127.974 39.28 127.974 39.28C127.974 39.28 127.974 39.28 127.973 39.28C127.973 39.28 127.973 39.28 127.973 39.28C127.972 39.28 127.972 39.28 127.972 39.28C127.971 39.28 127.971 39.28 127.971 39.28C127.971 39.28 127.97 39.28 127.97 39.28C127.97 39.28 127.97 39.28 127.969 39.28C127.969 39.28 127.969 39.28 127.969 39.28C127.968 39.28 127.968 39.28 127.968 39.28C127.968 39.28 127.967 39.28 127.967 39.28C127.967 39.28 127.967 39.28 127.966 39.28C127.966 39.28 127.966 39.28 127.965 39.28C127.965 39.28 127.965 39.28 127.965 39.28C127.964 39.28 127.964 39.28 127.964 39.28C127.964 39.28 127.963 39.28 127.963 39.28C127.963 39.28 127.963 39.28 127.962 39.28C127.962 39.28 127.962 39.28 127.962 39.28C127.961 39.28 127.961 39.28 127.961 39.28C127.961 39.28 127.96 39.28 127.96 39.28C127.96 39.28 127.959 39.28 127.959 39.28C127.959 39.28 127.959 39.28 127.958 39.28C127.958 39.28 127.958 39.28 127.958 39.28C127.957 39.28 127.957 39.28 127.957 39.28C127.957 39.28 127.956 39.28 127.956 39.28C127.956 39.28 127.956 39.28 127.955 39.28C127.955 39.28 127.955 39.28 127.955 39.28C127.954 39.28 127.954 39.28 127.954 39.28C127.953 39.28 127.953 39.28 127.953 39.28C127.953 39.28 127.952 39.28 127.952 39.28C127.952 39.28 127.952 39.28 127.951 39.28C127.951 39.28 127.951 39.28 127.951 39.28C127.95 39.28 127.95 39.28 127.95 39.28C127.95 39.28 127.949 39.28 127.949 39.28C127.949 39.28 127.949 39.28 127.948 39.28C127.948 39.28 127.948 39.28 127.948 39.28C127.947 39.28 127.947 39.28 127.947 39.28C127.946 39.28 127.946 39.28 127.946 39.28C127.946 39.28 127.945 39.28 127.945 39.28C127.945 39.28 127.945 39.28 127.944 39.28C127.944 39.28 127.944 39.28 127.944 39.28C127.943 39.28 127.943 39.28 127.943 39.28C127.943 39.28 127.942 39.28 127.942 39.28C127.942 39.28 127.942 39.28 127.941 39.28C127.941 39.28 127.941 39.28 127.94 39.28C127.94 39.28 127.94 39.28 127.94 39.28C127.939 39.28 127.939 39.28 127.939 39.28C127.939 39.28 127.938 39.28 127.938 39.28C127.938 39.28 127.938 39.28 127.937 39.28C127.937 39.28 127.937 39.28 127.937 39.28C127.936 39.28 127.936 39.28 127.936 39.28C127.936 39.28 127.935 39.28 127.935 39.28C127.935 39.28 127.934 39.28 127.934 39.28C127.934 39.28 127.934 39.28 127.933 39.28C127.933 39.28 127.933 39.28 127.933 39.28C127.932 39.28 127.932 39.28 127.932 39.28C127.932 39.28 127.931 39.28 127.931 39.28C127.931 39.28 127.931 39.28 127.93 39.28C127.93 39.28 127.93 39.28 127.93 39.28C127.929 39.28 127.929 39.28 127.929 39.28C127.928 39.28 127.928 39.28 127.928 39.28C127.928 39.28 127.927 39.28 127.927 39.28C127.927 39.28 127.927 39.28 127.926 39.28C127.926 39.28 127.926 39.28 127.926 39.28C127.925 39.28 127.925 39.28 127.925 39.28C127.925 39.28 127.924 39.28 127.924 39.28C127.924 39.28 127.924 39.28 127.923 39.28C127.923 39.28 127.923 39.28 127.923 39.28C127.922 39.28 127.922 39.28 127.922 39.28C127.921 39.28 127.921 39.28 127.921 39.28C127.921 39.28 127.92 39.28 127.92 39.28C127.92 39.28 127.92 39.28 127.919 39.28C127.919 39.28 127.919 39.28 127.919 39.28C127.918 39.28 127.918 39.28 127.918 39.28C127.918 39.28 127.917 39.28 127.917 39.28C127.917 39.28 127.917 39.28 127.916 39.28C127.916 39.28 127.916 39.28 127.915 39.28C127.915 39.28 127.915 39.28 127.915 39.28C127.914 39.28 127.914 39.28 127.914 39.28C127.914 39.28 127.913 39.28 127.913 39.28C127.913 39.28 127.913 39.28 127.912 39.28C127.912 39.28 127.912 39.28 127.912 39.28C127.911 39.28 127.911 39.28 127.911 39.28C127.911 39.28 127.91 39.28 127.91 39.28C127.91 39.28 127.909 39.28 127.909 39.28C127.909 39.28 127.909 39.28 127.908 39.28C127.908 39.28 127.908 39.28 127.908 39.28C127.907 39.28 127.907 39.28 127.907 39.28C127.907 39.28 127.906 39.28 127.906 39.28C127.906 39.28 127.906 39.28 127.905 39.28C127.905 39.28 127.905 39.28 127.905 39.28C127.904 39.28 127.904 39.28 127.904 39.28C127.903 39.28 127.903 39.28 127.903 39.28C127.903 39.28 127.902 39.28 127.902 39.28C127.902 39.28 127.902 39.28 127.901 39.28C127.901 39.28 127.901 39.28 127.901 39.28C127.9 39.28 127.9 39.28 127.9 39.28C127.9 39.28 127.899 39.28 127.899 39.28C127.899 39.28 127.899 39.28 127.898 39.28C127.898 39.28 127.898 39.28 127.898 39.28C127.897 39.28 127.897 39.28 127.897 39.28C127.896 39.28 127.896 39.28 127.896 39.28C127.896 39.28 127.895 39.28 127.895 39.28C127.895 39.28 127.895 39.28 127.894 39.28C127.894 39.28 127.894 39.28 127.894 39.28C127.893 39.28 127.893 39.28 127.893 39.28C127.893 39.28 127.892 39.28 127.892 39.28C127.892 39.28 127.892 39.28 127.891 39.28C127.891 39.28 127.891 39.28 127.89 39.28C127.89 39.28 127.89 39.28 127.89 39.28C127.889 39.28 127.889 39.28 127.889 39.28C127.889 39.28 127.888 39.28 127.888 39.28C127.888 39.28 127.888 39.28 127.887 39.28C127.887 39.28 127.887 39.28 127.887 39.28C127.886 39.28 127.886 39.28 127.886 39.28C127.886 39.28 127.885 39.28 127.885 39.28C127.885 39.28 127.884 39.28 127.884 39.28C127.884 39.28 127.884 39.28 127.883 39.28C127.883 39.28 127.883 39.28 127.883 39.28C127.882 39.28 127.882 39.28 127.882 39.28C127.882 39.28 127.881 39.28 127.881 39.28C127.881 39.28 127.881 39.28 127.88 39.28C127.88 39.28 127.88 39.28 127.88 39.28C127.879 39.28 127.879 39.28 127.879 39.28C127.878 39.28 127.878 39.28 127.878 39.28C127.878 39.28 127.877 39.28 127.877 39.28C127.877 39.28 127.877 39.28 127.876 39.28C127.876 39.28 127.876 39.28 127.876 39.28C127.875 39.28 127.875 39.28 127.875 39.28C127.875 39.28 127.874 39.28 127.874 39.28C127.874 39.28 127.874 39.28 127.873 39.28C127.873 39.28 127.873 39.28 127.873 39.28C127.872 39.28 127.872 39.28 127.872 39.28C127.871 39.28 127.871 39.28 127.871 39.28C127.871 39.28 127.87 39.28 127.87 39.28C127.87 39.28 127.87 39.28 127.869 39.28C127.869 39.28 127.869 39.28 127.869 39.28C127.868 39.28 127.868 39.28 127.868 39.28C127.868 39.28 127.867 39.28 127.867 39.28C127.867 39.28 127.867 39.28 127.866 39.28C127.866 39.28 127.866 39.28 127.865 39.28C127.865 39.28 127.865 39.28 127.865 39.28C127.864 39.28 127.864 39.28 127.864 39.28C127.864 39.28 127.863 39.28 127.863 39.28C127.863 39.28 127.863 39.28 127.862 39.28C127.862 39.28 127.862 39.28 127.862 39.28C127.861 39.28 127.861 39.28 127.861 39.28C127.861 39.28 127.86 39.28 127.86 39.28C127.86 39.28 127.859 39.28 127.859 39.28C127.859 39.28 127.859 39.28 127.858 39.28C127.858 39.28 127.858 39.28 127.858 39.28C127.857 39.28 127.857 39.28 127.857 39.28C127.857 39.28 127.856 39.28 127.856 39.28C127.856 39.28 127.856 39.28 127.855 39.28C127.855 39.28 127.855 39.28 127.855 39.28C127.854 39.28 127.854 39.28 127.854 39.28C127.853 39.28 127.853 39.28 127.853 39.28C127.853 39.28 127.852 39.28 127.852 39.28C127.852 39.28 127.852 39.28 127.851 39.28C127.851 39.28 127.851 39.28 127.851 39.28C127.85 39.28 127.85 39.28 127.85 39.28C127.85 39.28 127.849 39.28 127.849 39.28C127.849 39.28 127.849 39.28 127.848 39.28C127.848 39.28 127.848 39.28 127.848 39.28C127.847 39.28 127.847 39.28 127.847 39.28C127.846 39.28 127.846 39.28 127.846 39.28C127.846 39.28 127.845 39.28 127.845 39.28C127.845 39.28 127.845 39.28 127.844 39.28C127.844 39.28 127.844 39.28 127.844 39.28C127.843 39.28 127.843 39.28 127.843 39.28C127.843 39.28 127.842 39.28 127.842 39.28C127.842 39.28 127.842 39.28 127.841 39.28C127.841 39.28 127.841 39.28 127.84 39.28C127.84 39.28 127.84 39.28 127.84 39.28C127.839 39.28 127.839 39.28 127.839 39.28C127.839 39.28 127.838 39.28 127.838 39.28C127.838 39.28 127.838 39.28 127.837 39.28C127.837 39.28 127.837 39.28 127.837 39.28C127.836 39.28 127.836 39.28 127.836 39.28C127.836 39.28 127.835 39.28 127.835 39.28C127.835 39.28 127.834 39.28 127.834 39.28C127.834 39.28 127.834 39.28 127.833 39.28C127.833 39.28 127.833 39.28 127.833 39.28C127.832 39.28 127.832 39.28 127.832 39.28C127.832 39.28 127.831 39.28 127.831 39.28C127.831 39.28 127.831 39.28 127.83 39.28C127.83 39.28 127.83 39.28 127.83 39.28C127.829 39.28 127.829 39.28 127.829 39.28C127.828 39.28 127.828 39.28 127.828 39.28C127.828 39.28 127.827 39.28 127.827 39.28C127.827 39.28 127.827 39.28 127.826 39.28C127.826 39.28 127.826 39.28 127.826 39.28C127.825 39.28 127.825 39.28 127.825 39.28C127.825 39.28 127.824 39.28 127.824 39.28C127.824 39.28 127.824 39.28 127.823 39.28C127.823 39.28 127.823 39.28 127.823 39.28C127.822 39.28 127.822 39.28 127.822 39.28C127.821 39.28 127.821 39.28 127.821 39.28C127.821 39.28 127.82 39.28 127.82 39.28C127.82 39.28 127.82 39.28 127.819 39.28C127.819 39.28 127.819 39.28 127.819 39.28C127.818 39.28 127.818 39.28 127.818 39.28C127.818 39.28 127.817 39.28 127.817 39.28C127.817 39.28 127.817 39.28 127.816 39.28C127.816 39.28 127.816 39.28 127.815 39.28C127.815 39.28 127.815 39.28 127.815 39.28C127.814 39.28 127.814 39.28 127.814 39.28C127.814 39.28 127.813 39.28 127.813 39.28C127.813 39.28 127.813 39.28 127.812 39.28C127.812 39.28 127.812 39.28 127.812 39.28C127.811 39.28 127.811 39.28 127.811 39.28C127.811 39.28 127.81 39.28 127.81 39.28C127.81 39.28 127.809 39.28 127.809 39.28C127.809 39.28 127.809 39.28 127.808 39.28C127.808 39.28 127.808 39.28 127.808 39.28C127.807 39.28 127.807 39.28 127.807 39.28C127.807 39.28 127.806 39.28 127.806 39.28C127.806 39.28 127.806 39.28 127.805 39.28C127.805 39.28 127.805 39.28 127.805 39.28C127.804 39.28 127.804 39.28 127.804 39.28C127.803 39.28 127.803 39.28 127.803 39.28C127.803 39.28 127.802 39.28 127.802 39.28C127.802 39.28 127.802 39.28 127.801 39.28C127.801 39.28 127.801 39.28 127.801 39.28C127.8 39.28 127.8 39.28 127.8 39.28C127.8 39.28 127.799 39.28 127.799 39.28C127.799 39.28 127.799 39.28 127.798 39.28C127.798 39.28 127.798 39.28 127.798 39.28C127.797 39.28 127.797 39.28 127.797 39.28C127.796 39.28 127.796 39.28 127.796 39.28C127.796 39.28 127.795 39.28 127.795 39.28C127.795 39.28 127.795 39.28 127.794 39.28C127.794 39.28 127.794 39.28 127.794 39.28C127.793 39.28 127.793 39.28 127.793 39.28C127.793 39.28 127.792 39.28 127.792 39.28C127.792 39.28 127.792 39.28 127.791 39.28C127.791 39.28 127.791 39.28 127.79 39.28C127.79 39.28 127.79 39.28 127.79 39.28C127.789 39.28 127.789 39.28 127.789 39.28C127.789 39.28 127.788 39.28 127.788 39.28C127.788 39.28 127.788 39.28 127.787 39.28C127.787 39.28 127.787 39.28 127.787 39.28C127.786 39.28 127.786 39.28 127.786 39.28C127.786 39.28 127.785 39.28 127.785 39.28C127.785 39.28 127.784 39.28 127.784 39.28C127.784 39.28 127.784 39.28 127.783 39.28C127.783 39.28 127.783 39.28 127.783 39.28C127.782 39.28 127.782 39.28 127.782 39.28C127.782 39.28 127.781 39.28 127.781 39.28C127.781 39.28 127.781 39.28 127.78 39.28C127.78 39.28 127.78 39.28 127.78 39.28C127.779 39.28 127.779 39.28 127.779 39.28C127.778 39.28 127.778 39.28 127.778 39.28C127.778 39.28 127.777 39.28 127.777 39.28C127.777 39.28 127.777 39.28 127.776 39.28C127.776 39.28 127.776 39.28 127.776 39.28C127.775 39.28 127.775 39.28 127.775 39.28C127.775 39.28 127.774 39.28 127.774 39.28C127.774 39.28 127.774 39.28 127.773 39.28C127.773 39.28 127.773 39.28 127.773 39.28C127.772 39.28 127.772 39.28 127.772 39.28C127.771 39.28 127.771 39.28 127.771 39.28C127.771 39.28 127.77 39.28 127.77 39.28C127.77 39.28 127.77 39.28 127.769 39.28C127.769 39.28 127.769 39.28 127.769 39.28C127.768 39.28 127.768 39.28 127.768 39.28C127.768 39.28 127.767 39.28 127.767 39.28C127.767 39.28 127.767 39.28 127.766 39.28C127.766 39.28 127.766 39.28 127.765 39.28C127.765 39.28 127.765 39.28 127.765 39.28C127.764 39.28 127.764 39.28 127.764 39.28C127.764 39.28 127.763 39.28 127.763 39.28C127.763 39.28 127.763 39.28 127.762 39.28C127.762 39.28 127.762 39.28 127.762 39.28C127.761 39.28 127.761 39.28 127.761 39.28C127.761 39.28 127.76 39.28 127.76 39.28C127.76 39.28 127.759 39.28 127.759 39.28C127.759 39.28 127.759 39.28 127.758 39.28C127.758 39.28 127.758 39.28 127.758 39.28C127.757 39.28 127.757 39.28 127.757 39.28C127.757 39.28 127.756 39.28 127.756 39.28C127.756 39.28 127.756 39.28 127.755 39.28C127.755 39.28 127.755 39.28 127.755 39.28C127.754 39.28 127.754 39.28 127.754 39.28C127.753 39.28 127.753 39.28 127.753 39.28C127.753 39.28 127.752 39.28 127.752 39.28C127.752 39.28 127.752 39.28 127.751 39.28C127.751 39.28 127.751 39.28 127.751 39.28C127.75 39.28 127.75 39.28 127.75 39.28C127.75 39.28 127.749 39.28 127.749 39.28C127.749 39.28 127.749 39.28 127.748 39.28C127.748 39.28 127.748 39.28 127.748 39.28C127.747 39.28 127.747 39.28 127.747 39.28C127.746 39.28 127.746 39.28 127.746 39.28C127.746 39.28 127.745 39.28 127.745 39.28C127.745 39.28 127.745 39.28 127.744 39.28C127.744 39.28 127.744 39.28 127.744 39.28C127.743 39.28 127.743 39.28 127.743 39.28C127.743 39.28 127.742 39.28 127.742 39.28C127.742 39.28 127.742 39.28 127.741 39.28C127.741 39.28 127.741 39.28 127.74 39.28C127.74 39.28 127.74 39.28 127.74 39.28C127.739 39.28 127.739 39.28 127.739 39.28C127.739 39.28 127.738 39.28 127.738 39.28C127.738 39.28 127.738 39.28 127.737 39.28C127.737 39.28 127.737 39.28 127.737 39.28C127.736 39.28 127.736 39.28 127.736 39.28C127.736 39.28 127.735 39.28 127.735 39.28C127.735 39.28 127.734 39.28 127.734 39.28C127.734 39.28 127.734 39.28 127.733 39.28C127.733 39.28 127.733 39.28 127.733 39.28C127.732 39.28 127.732 39.28 127.732 39.28C127.732 39.28 127.731 39.28 127.731 39.28C127.731 39.28 127.731 39.28 127.73 39.28C127.73 39.28 127.73 39.28 127.73 39.28C127.729 39.28 127.729 39.28 127.729 39.28C127.728 39.28 127.728 39.28 127.728 39.28C127.728 39.28 127.727 39.28 127.727 39.28C127.727 39.28 127.727 39.28 127.726 39.28C127.726 39.28 127.726 39.28 127.726 39.28C127.725 39.28 127.725 39.28 127.725 39.28C127.725 39.28 127.724 39.28 127.724 39.28C127.724 39.28 127.724 39.28 127.723 39.28C127.723 39.28 127.723 39.28 127.723 39.28C127.722 39.28 127.722 39.28 127.722 39.28C127.721 39.28 127.721 39.28 127.721 39.28C127.721 39.28 127.72 39.28 127.72 39.28C127.72 39.28 127.72 39.28 127.719 39.28C127.719 39.28 127.719 39.28 127.719 39.28C127.718 39.28 127.718 39.28 127.718 39.28C127.718 39.28 127.717 39.28 127.717 39.28C127.717 39.28 127.717 39.28 127.716 39.28C127.716 39.28 127.716 39.28 127.715 39.28C127.715 39.28 127.715 39.28 127.715 39.28C127.714 39.28 127.714 39.28 127.714 39.28C127.714 39.28 127.713 39.28 127.713 39.28C127.713 39.28 127.713 39.28 127.712 39.28C127.712 39.28 127.712 39.28 127.712 39.28C127.711 39.28 127.711 39.28 127.711 39.28C127.711 39.28 127.71 39.28 127.71 39.28C127.71 39.28 127.709 39.28 127.709 39.28C127.709 39.28 127.709 39.28 127.708 39.28C127.708 39.28 127.708 39.28 127.708 39.28C127.707 39.28 127.707 39.28 127.707 39.28C127.707 39.28 127.706 39.28 127.706 39.28C127.706 39.28 127.706 39.28 127.705 39.28C127.705 39.28 127.705 39.28 127.705 39.28C127.704 39.28 127.704 39.28 127.704 39.28C127.703 39.28 127.703 39.28 127.703 39.28C127.703 39.28 127.702 39.28 127.702 39.28C127.702 39.28 127.702 39.28 127.701 39.28C127.701 39.28 127.701 39.28 127.701 39.28C127.7 39.28 127.7 39.28 127.7 39.28C127.7 39.28 127.699 39.28 127.699 39.28C127.699 39.28 127.699 39.28 127.698 39.28C127.698 39.28 127.698 39.28 127.698 39.28C127.697 39.28 127.697 39.28 127.697 39.28C127.696 39.28 127.696 39.28 127.696 39.28C127.696 39.28 127.695 39.28 127.695 39.28C127.695 39.28 127.695 39.28 127.694 39.28C127.694 39.28 127.694 39.28 127.694 39.28C127.693 39.28 127.693 39.28 127.693 39.28C127.693 39.28 127.692 39.28 127.692 39.28C127.692 39.28 127.692 39.28 127.691 39.28C127.691 39.28 127.691 39.28 127.69 39.28C127.69 39.28 127.69 39.28 127.69 39.28C127.689 39.28 127.689 39.28 127.689 39.28C127.689 39.28 127.688 39.28 127.688 39.28C127.688 39.28 127.688 39.28 127.687 39.28C127.687 39.28 127.687 39.28 127.687 39.28C127.686 39.28 127.686 39.28 127.686 39.28C127.686 39.28 127.685 39.28 127.685 39.28C127.685 39.28 127.684 39.28 127.684 39.28C127.684 39.28 127.684 39.28 127.683 39.28C127.683 39.28 127.683 39.28 127.683 39.28C127.682 39.28 127.682 39.28 127.682 39.28C127.682 39.28 127.681 39.28 127.681 39.28C127.681 39.28 127.681 39.28 127.68 39.28C127.68 39.28 127.68 39.28 127.68 39.28C127.679 39.28 127.679 39.28 127.679 39.28C127.678 39.28 127.678 39.28 127.678 39.28C127.678 39.28 127.677 39.28 127.677 39.28C127.677 39.28 127.677 39.28 127.676 39.28C127.676 39.28 127.676 39.28 127.676 39.28C127.675 39.28 127.675 39.28 127.675 39.28C127.675 39.28 127.674 39.28 127.674 39.28C127.674 39.28 127.674 39.28 127.673 39.28C127.673 39.28 127.673 39.28 127.673 39.28C127.672 39.28 127.672 39.28 127.672 39.28C127.671 39.28 127.671 39.28 127.671 39.28C127.671 39.28 127.67 39.28 127.67 39.28C127.67 39.28 127.67 39.28 127.669 39.28C127.669 39.28 127.669 39.28 127.669 39.28C127.668 39.28 127.668 39.28 127.668 39.28C127.668 39.28 127.667 39.28 127.667 39.28C127.667 39.28 127.667 39.28 127.666 39.28C127.666 39.28 127.666 39.28 127.665 39.28C127.665 39.28 127.665 39.28 127.665 39.28C127.664 39.28 127.664 39.28 127.664 39.28V41.28C127.664 41.28 127.664 41.28 127.665 41.28C127.665 41.28 127.665 41.28 127.665 41.28C127.666 41.28 127.666 41.28 127.666 41.28C127.667 41.28 127.667 41.28 127.667 41.28C127.667 41.28 127.668 41.28 127.668 41.28C127.668 41.28 127.668 41.28 127.669 41.28C127.669 41.28 127.669 41.28 127.669 41.28C127.67 41.28 127.67 41.28 127.67 41.28C127.67 41.28 127.671 41.28 127.671 41.28C127.671 41.28 127.671 41.28 127.672 41.28C127.672 41.28 127.672 41.28 127.673 41.28C127.673 41.28 127.673 41.28 127.673 41.28C127.674 41.28 127.674 41.28 127.674 41.28C127.674 41.28 127.675 41.28 127.675 41.28C127.675 41.28 127.675 41.28 127.676 41.28C127.676 41.28 127.676 41.28 127.676 41.28C127.677 41.28 127.677 41.28 127.677 41.28C127.677 41.28 127.678 41.28 127.678 41.28C127.678 41.28 127.678 41.28 127.679 41.28C127.679 41.28 127.679 41.28 127.68 41.28C127.68 41.28 127.68 41.28 127.68 41.28C127.681 41.28 127.681 41.28 127.681 41.28C127.681 41.28 127.682 41.28 127.682 41.28C127.682 41.28 127.682 41.28 127.683 41.28C127.683 41.28 127.683 41.28 127.683 41.28C127.684 41.28 127.684 41.28 127.684 41.28C127.684 41.28 127.685 41.28 127.685 41.28C127.685 41.28 127.686 41.28 127.686 41.28C127.686 41.28 127.686 41.28 127.687 41.28C127.687 41.28 127.687 41.28 127.687 41.28C127.688 41.28 127.688 41.28 127.688 41.28C127.688 41.28 127.689 41.28 127.689 41.28C127.689 41.28 127.689 41.28 127.69 41.28C127.69 41.28 127.69 41.28 127.69 41.28C127.691 41.28 127.691 41.28 127.691 41.28C127.692 41.28 127.692 41.28 127.692 41.28C127.692 41.28 127.693 41.28 127.693 41.28C127.693 41.28 127.693 41.28 127.694 41.28C127.694 41.28 127.694 41.28 127.694 41.28C127.695 41.28 127.695 41.28 127.695 41.28C127.695 41.28 127.696 41.28 127.696 41.28C127.696 41.28 127.696 41.28 127.697 41.28C127.697 41.28 127.697 41.28 127.698 41.28C127.698 41.28 127.698 41.28 127.698 41.28C127.699 41.28 127.699 41.28 127.699 41.28C127.699 41.28 127.7 41.28 127.7 41.28C127.7 41.28 127.7 41.28 127.701 41.28C127.701 41.28 127.701 41.28 127.701 41.28C127.702 41.28 127.702 41.28 127.702 41.28C127.702 41.28 127.703 41.28 127.703 41.28C127.703 41.28 127.703 41.28 127.704 41.28C127.704 41.28 127.704 41.28 127.705 41.28C127.705 41.28 127.705 41.28 127.705 41.28C127.706 41.28 127.706 41.28 127.706 41.28C127.706 41.28 127.707 41.28 127.707 41.28C127.707 41.28 127.707 41.28 127.708 41.28C127.708 41.28 127.708 41.28 127.708 41.28C127.709 41.28 127.709 41.28 127.709 41.28C127.709 41.28 127.71 41.28 127.71 41.28C127.71 41.28 127.711 41.28 127.711 41.28C127.711 41.28 127.711 41.28 127.712 41.28C127.712 41.28 127.712 41.28 127.712 41.28C127.713 41.28 127.713 41.28 127.713 41.28C127.713 41.28 127.714 41.28 127.714 41.28C127.714 41.28 127.714 41.28 127.715 41.28C127.715 41.28 127.715 41.28 127.715 41.28C127.716 41.28 127.716 41.28 127.716 41.28C127.717 41.28 127.717 41.28 127.717 41.28C127.717 41.28 127.718 41.28 127.718 41.28C127.718 41.28 127.718 41.28 127.719 41.28C127.719 41.28 127.719 41.28 127.719 41.28C127.72 41.28 127.72 41.28 127.72 41.28C127.72 41.28 127.721 41.28 127.721 41.28C127.721 41.28 127.721 41.28 127.722 41.28C127.722 41.28 127.722 41.28 127.723 41.28C127.723 41.28 127.723 41.28 127.723 41.28C127.724 41.28 127.724 41.28 127.724 41.28C127.724 41.28 127.725 41.28 127.725 41.28C127.725 41.28 127.725 41.28 127.726 41.28C127.726 41.28 127.726 41.28 127.726 41.28C127.727 41.28 127.727 41.28 127.727 41.28C127.727 41.28 127.728 41.28 127.728 41.28C127.728 41.28 127.728 41.28 127.729 41.28C127.729 41.28 127.729 41.28 127.73 41.28C127.73 41.28 127.73 41.28 127.73 41.28C127.731 41.28 127.731 41.28 127.731 41.28C127.731 41.28 127.732 41.28 127.732 41.28C127.732 41.28 127.732 41.28 127.733 41.28C127.733 41.28 127.733 41.28 127.733 41.28C127.734 41.28 127.734 41.28 127.734 41.28C127.734 41.28 127.735 41.28 127.735 41.28C127.735 41.28 127.736 41.28 127.736 41.28C127.736 41.28 127.736 41.28 127.737 41.28C127.737 41.28 127.737 41.28 127.737 41.28C127.738 41.28 127.738 41.28 127.738 41.28C127.738 41.28 127.739 41.28 127.739 41.28C127.739 41.28 127.739 41.28 127.74 41.28C127.74 41.28 127.74 41.28 127.74 41.28C127.741 41.28 127.741 41.28 127.741 41.28C127.742 41.28 127.742 41.28 127.742 41.28C127.742 41.28 127.743 41.28 127.743 41.28C127.743 41.28 127.743 41.28 127.744 41.28C127.744 41.28 127.744 41.28 127.744 41.28C127.745 41.28 127.745 41.28 127.745 41.28C127.745 41.28 127.746 41.28 127.746 41.28C127.746 41.28 127.746 41.28 127.747 41.28C127.747 41.28 127.747 41.28 127.748 41.28C127.748 41.28 127.748 41.28 127.748 41.28C127.749 41.28 127.749 41.28 127.749 41.28C127.749 41.28 127.75 41.28 127.75 41.28C127.75 41.28 127.75 41.28 127.751 41.28C127.751 41.28 127.751 41.28 127.751 41.28C127.752 41.28 127.752 41.28 127.752 41.28C127.752 41.28 127.753 41.28 127.753 41.28C127.753 41.28 127.753 41.28 127.754 41.28C127.754 41.28 127.754 41.28 127.755 41.28C127.755 41.28 127.755 41.28 127.755 41.28C127.756 41.28 127.756 41.28 127.756 41.28C127.756 41.28 127.757 41.28 127.757 41.28C127.757 41.28 127.757 41.28 127.758 41.28C127.758 41.28 127.758 41.28 127.758 41.28C127.759 41.28 127.759 41.28 127.759 41.28C127.759 41.28 127.76 41.28 127.76 41.28C127.76 41.28 127.761 41.28 127.761 41.28C127.761 41.28 127.761 41.28 127.762 41.28C127.762 41.28 127.762 41.28 127.762 41.28C127.763 41.28 127.763 41.28 127.763 41.28C127.763 41.28 127.764 41.28 127.764 41.28C127.764 41.28 127.764 41.28 127.765 41.28C127.765 41.28 127.765 41.28 127.765 41.28C127.766 41.28 127.766 41.28 127.766 41.28C127.767 41.28 127.767 41.28 127.767 41.28C127.767 41.28 127.768 41.28 127.768 41.28C127.768 41.28 127.768 41.28 127.769 41.28C127.769 41.28 127.769 41.28 127.769 41.28C127.77 41.28 127.77 41.28 127.77 41.28C127.77 41.28 127.771 41.28 127.771 41.28C127.771 41.28 127.771 41.28 127.772 41.28C127.772 41.28 127.772 41.28 127.773 41.28C127.773 41.28 127.773 41.28 127.773 41.28C127.774 41.28 127.774 41.28 127.774 41.28C127.774 41.28 127.775 41.28 127.775 41.28C127.775 41.28 127.775 41.28 127.776 41.28C127.776 41.28 127.776 41.28 127.776 41.28C127.777 41.28 127.777 41.28 127.777 41.28C127.777 41.28 127.778 41.28 127.778 41.28C127.778 41.28 127.778 41.28 127.779 41.28C127.779 41.28 127.779 41.28 127.78 41.28C127.78 41.28 127.78 41.28 127.78 41.28C127.781 41.28 127.781 41.28 127.781 41.28C127.781 41.28 127.782 41.28 127.782 41.28C127.782 41.28 127.782 41.28 127.783 41.28C127.783 41.28 127.783 41.28 127.783 41.28C127.784 41.28 127.784 41.28 127.784 41.28C127.784 41.28 127.785 41.28 127.785 41.28C127.785 41.28 127.786 41.28 127.786 41.28C127.786 41.28 127.786 41.28 127.787 41.28C127.787 41.28 127.787 41.28 127.787 41.28C127.788 41.28 127.788 41.28 127.788 41.28C127.788 41.28 127.789 41.28 127.789 41.28C127.789 41.28 127.789 41.28 127.79 41.28C127.79 41.28 127.79 41.28 127.79 41.28C127.791 41.28 127.791 41.28 127.791 41.28C127.792 41.28 127.792 41.28 127.792 41.28C127.792 41.28 127.793 41.28 127.793 41.28C127.793 41.28 127.793 41.28 127.794 41.28C127.794 41.28 127.794 41.28 127.794 41.28C127.795 41.28 127.795 41.28 127.795 41.28C127.795 41.28 127.796 41.28 127.796 41.28C127.796 41.28 127.796 41.28 127.797 41.28C127.797 41.28 127.797 41.28 127.798 41.28C127.798 41.28 127.798 41.28 127.798 41.28C127.799 41.28 127.799 41.28 127.799 41.28C127.799 41.28 127.8 41.28 127.8 41.28C127.8 41.28 127.8 41.28 127.801 41.28C127.801 41.28 127.801 41.28 127.801 41.28C127.802 41.28 127.802 41.28 127.802 41.28C127.802 41.28 127.803 41.28 127.803 41.28C127.803 41.28 127.803 41.28 127.804 41.28C127.804 41.28 127.804 41.28 127.805 41.28C127.805 41.28 127.805 41.28 127.805 41.28C127.806 41.28 127.806 41.28 127.806 41.28C127.806 41.28 127.807 41.28 127.807 41.28C127.807 41.28 127.807 41.28 127.808 41.28C127.808 41.28 127.808 41.28 127.808 41.28C127.809 41.28 127.809 41.28 127.809 41.28C127.809 41.28 127.81 41.28 127.81 41.28C127.81 41.28 127.811 41.28 127.811 41.28C127.811 41.28 127.811 41.28 127.812 41.28C127.812 41.28 127.812 41.28 127.812 41.28C127.813 41.28 127.813 41.28 127.813 41.28C127.813 41.28 127.814 41.28 127.814 41.28C127.814 41.28 127.814 41.28 127.815 41.28C127.815 41.28 127.815 41.28 127.815 41.28C127.816 41.28 127.816 41.28 127.816 41.28C127.817 41.28 127.817 41.28 127.817 41.28C127.817 41.28 127.818 41.28 127.818 41.28C127.818 41.28 127.818 41.28 127.819 41.28C127.819 41.28 127.819 41.28 127.819 41.28C127.82 41.28 127.82 41.28 127.82 41.28C127.82 41.28 127.821 41.28 127.821 41.28C127.821 41.28 127.821 41.28 127.822 41.28C127.822 41.28 127.822 41.28 127.823 41.28C127.823 41.28 127.823 41.28 127.823 41.28C127.824 41.28 127.824 41.28 127.824 41.28C127.824 41.28 127.825 41.28 127.825 41.28C127.825 41.28 127.825 41.28 127.826 41.28C127.826 41.28 127.826 41.28 127.826 41.28C127.827 41.28 127.827 41.28 127.827 41.28C127.827 41.28 127.828 41.28 127.828 41.28C127.828 41.28 127.828 41.28 127.829 41.28C127.829 41.28 127.829 41.28 127.83 41.28C127.83 41.28 127.83 41.28 127.83 41.28C127.831 41.28 127.831 41.28 127.831 41.28C127.831 41.28 127.832 41.28 127.832 41.28C127.832 41.28 127.832 41.28 127.833 41.28C127.833 41.28 127.833 41.28 127.833 41.28C127.834 41.28 127.834 41.28 127.834 41.28C127.834 41.28 127.835 41.28 127.835 41.28C127.835 41.28 127.836 41.28 127.836 41.28C127.836 41.28 127.836 41.28 127.837 41.28C127.837 41.28 127.837 41.28 127.837 41.28C127.838 41.28 127.838 41.28 127.838 41.28C127.838 41.28 127.839 41.28 127.839 41.28C127.839 41.28 127.839 41.28 127.84 41.28C127.84 41.28 127.84 41.28 127.84 41.28C127.841 41.28 127.841 41.28 127.841 41.28C127.842 41.28 127.842 41.28 127.842 41.28C127.842 41.28 127.843 41.28 127.843 41.28C127.843 41.28 127.843 41.28 127.844 41.28C127.844 41.28 127.844 41.28 127.844 41.28C127.845 41.28 127.845 41.28 127.845 41.28C127.845 41.28 127.846 41.28 127.846 41.28C127.846 41.28 127.846 41.28 127.847 41.28C127.847 41.28 127.847 41.28 127.848 41.28C127.848 41.28 127.848 41.28 127.848 41.28C127.849 41.28 127.849 41.28 127.849 41.28C127.849 41.28 127.85 41.28 127.85 41.28C127.85 41.28 127.85 41.28 127.851 41.28C127.851 41.28 127.851 41.28 127.851 41.28C127.852 41.28 127.852 41.28 127.852 41.28C127.852 41.28 127.853 41.28 127.853 41.28C127.853 41.28 127.853 41.28 127.854 41.28C127.854 41.28 127.854 41.28 127.855 41.28C127.855 41.28 127.855 41.28 127.855 41.28C127.856 41.28 127.856 41.28 127.856 41.28C127.856 41.28 127.857 41.28 127.857 41.28C127.857 41.28 127.857 41.28 127.858 41.28C127.858 41.28 127.858 41.28 127.858 41.28C127.859 41.28 127.859 41.28 127.859 41.28C127.859 41.28 127.86 41.28 127.86 41.28C127.86 41.28 127.861 41.28 127.861 41.28C127.861 41.28 127.861 41.28 127.862 41.28C127.862 41.28 127.862 41.28 127.862 41.28C127.863 41.28 127.863 41.28 127.863 41.28C127.863 41.28 127.864 41.28 127.864 41.28C127.864 41.28 127.864 41.28 127.865 41.28C127.865 41.28 127.865 41.28 127.865 41.28C127.866 41.28 127.866 41.28 127.866 41.28C127.867 41.28 127.867 41.28 127.867 41.28C127.867 41.28 127.868 41.28 127.868 41.28C127.868 41.28 127.868 41.28 127.869 41.28C127.869 41.28 127.869 41.28 127.869 41.28C127.87 41.28 127.87 41.28 127.87 41.28C127.87 41.28 127.871 41.28 127.871 41.28C127.871 41.28 127.871 41.28 127.872 41.28C127.872 41.28 127.872 41.28 127.873 41.28C127.873 41.28 127.873 41.28 127.873 41.28C127.874 41.28 127.874 41.28 127.874 41.28C127.874 41.28 127.875 41.28 127.875 41.28C127.875 41.28 127.875 41.28 127.876 41.28C127.876 41.28 127.876 41.28 127.876 41.28C127.877 41.28 127.877 41.28 127.877 41.28C127.877 41.28 127.878 41.28 127.878 41.28C127.878 41.28 127.878 41.28 127.879 41.28C127.879 41.28 127.879 41.28 127.88 41.28C127.88 41.28 127.88 41.28 127.88 41.28C127.881 41.28 127.881 41.28 127.881 41.28C127.881 41.28 127.882 41.28 127.882 41.28C127.882 41.28 127.882 41.28 127.883 41.28C127.883 41.28 127.883 41.28 127.883 41.28C127.884 41.28 127.884 41.28 127.884 41.28C127.884 41.28 127.885 41.28 127.885 41.28C127.885 41.28 127.886 41.28 127.886 41.28C127.886 41.28 127.886 41.28 127.887 41.28C127.887 41.28 127.887 41.28 127.887 41.28C127.888 41.28 127.888 41.28 127.888 41.28C127.888 41.28 127.889 41.28 127.889 41.28C127.889 41.28 127.889 41.28 127.89 41.28C127.89 41.28 127.89 41.28 127.89 41.28C127.891 41.28 127.891 41.28 127.891 41.28C127.892 41.28 127.892 41.28 127.892 41.28C127.892 41.28 127.893 41.28 127.893 41.28C127.893 41.28 127.893 41.28 127.894 41.28C127.894 41.28 127.894 41.28 127.894 41.28C127.895 41.28 127.895 41.28 127.895 41.28C127.895 41.28 127.896 41.28 127.896 41.28C127.896 41.28 127.896 41.28 127.897 41.28C127.897 41.28 127.897 41.28 127.898 41.28C127.898 41.28 127.898 41.28 127.898 41.28C127.899 41.28 127.899 41.28 127.899 41.28C127.899 41.28 127.9 41.28 127.9 41.28C127.9 41.28 127.9 41.28 127.901 41.28C127.901 41.28 127.901 41.28 127.901 41.28C127.902 41.28 127.902 41.28 127.902 41.28C127.902 41.28 127.903 41.28 127.903 41.28C127.903 41.28 127.903 41.28 127.904 41.28C127.904 41.28 127.904 41.28 127.905 41.28C127.905 41.28 127.905 41.28 127.905 41.28C127.906 41.28 127.906 41.28 127.906 41.28C127.906 41.28 127.907 41.28 127.907 41.28C127.907 41.28 127.907 41.28 127.908 41.28C127.908 41.28 127.908 41.28 127.908 41.28C127.909 41.28 127.909 41.28 127.909 41.28C127.909 41.28 127.91 41.28 127.91 41.28C127.91 41.28 127.911 41.28 127.911 41.28C127.911 41.28 127.911 41.28 127.912 41.28C127.912 41.28 127.912 41.28 127.912 41.28C127.913 41.28 127.913 41.28 127.913 41.28C127.913 41.28 127.914 41.28 127.914 41.28C127.914 41.28 127.914 41.28 127.915 41.28C127.915 41.28 127.915 41.28 127.915 41.28C127.916 41.28 127.916 41.28 127.916 41.28C127.917 41.28 127.917 41.28 127.917 41.28C127.917 41.28 127.918 41.28 127.918 41.28C127.918 41.28 127.918 41.28 127.919 41.28C127.919 41.28 127.919 41.28 127.919 41.28C127.92 41.28 127.92 41.28 127.92 41.28C127.92 41.28 127.921 41.28 127.921 41.28C127.921 41.28 127.921 41.28 127.922 41.28C127.922 41.28 127.922 41.28 127.923 41.28C127.923 41.28 127.923 41.28 127.923 41.28C127.924 41.28 127.924 41.28 127.924 41.28C127.924 41.28 127.925 41.28 127.925 41.28C127.925 41.28 127.925 41.28 127.926 41.28C127.926 41.28 127.926 41.28 127.926 41.28C127.927 41.28 127.927 41.28 127.927 41.28C127.927 41.28 127.928 41.28 127.928 41.28C127.928 41.28 127.928 41.28 127.929 41.28C127.929 41.28 127.929 41.28 127.93 41.28C127.93 41.28 127.93 41.28 127.93 41.28C127.931 41.28 127.931 41.28 127.931 41.28C127.931 41.28 127.932 41.28 127.932 41.28C127.932 41.28 127.932 41.28 127.933 41.28C127.933 41.28 127.933 41.28 127.933 41.28C127.934 41.28 127.934 41.28 127.934 41.28C127.934 41.28 127.935 41.28 127.935 41.28C127.935 41.28 127.936 41.28 127.936 41.28C127.936 41.28 127.936 41.28 127.937 41.28C127.937 41.28 127.937 41.28 127.937 41.28C127.938 41.28 127.938 41.28 127.938 41.28C127.938 41.28 127.939 41.28 127.939 41.28C127.939 41.28 127.939 41.28 127.94 41.28C127.94 41.28 127.94 41.28 127.94 41.28C127.941 41.28 127.941 41.28 127.941 41.28C127.942 41.28 127.942 41.28 127.942 41.28C127.942 41.28 127.943 41.28 127.943 41.28C127.943 41.28 127.943 41.28 127.944 41.28C127.944 41.28 127.944 41.28 127.944 41.28C127.945 41.28 127.945 41.28 127.945 41.28C127.945 41.28 127.946 41.28 127.946 41.28C127.946 41.28 127.946 41.28 127.947 41.28C127.947 41.28 127.947 41.28 127.948 41.28C127.948 41.28 127.948 41.28 127.948 41.28C127.949 41.28 127.949 41.28 127.949 41.28C127.949 41.28 127.95 41.28 127.95 41.28C127.95 41.28 127.95 41.28 127.951 41.28C127.951 41.28 127.951 41.28 127.951 41.28C127.952 41.28 127.952 41.28 127.952 41.28C127.952 41.28 127.953 41.28 127.953 41.28C127.953 41.28 127.953 41.28 127.954 41.28C127.954 41.28 127.954 41.28 127.955 41.28C127.955 41.28 127.955 41.28 127.955 41.28C127.956 41.28 127.956 41.28 127.956 41.28C127.956 41.28 127.957 41.28 127.957 41.28C127.957 41.28 127.957 41.28 127.958 41.28C127.958 41.28 127.958 41.28 127.958 41.28C127.959 41.28 127.959 41.28 127.959 41.28C127.959 41.28 127.96 41.28 127.96 41.28C127.96 41.28 127.961 41.28 127.961 41.28C127.961 41.28 127.961 41.28 127.962 41.28C127.962 41.28 127.962 41.28 127.962 41.28C127.963 41.28 127.963 41.28 127.963 41.28C127.963 41.28 127.964 41.28 127.964 41.28C127.964 41.28 127.964 41.28 127.965 41.28C127.965 41.28 127.965 41.28 127.965 41.28C127.966 41.28 127.966 41.28 127.966 41.28C127.967 41.28 127.967 41.28 127.967 41.28C127.967 41.28 127.968 41.28 127.968 41.28C127.968 41.28 127.968 41.28 127.969 41.28C127.969 41.28 127.969 41.28 127.969 41.28C127.97 41.28 127.97 41.28 127.97 41.28C127.97 41.28 127.971 41.28 127.971 41.28C127.971 41.28 127.971 41.28 127.972 41.28C127.972 41.28 127.972 41.28 127.973 41.28C127.973 41.28 127.973 41.28 127.973 41.28C127.974 41.28 127.974 41.28 127.974 41.28C127.974 41.28 127.975 41.28 127.975 41.28C127.975 41.28 127.975 41.28 127.976 41.28C127.976 41.28 127.976 41.28 127.976 41.28C127.977 41.28 127.977 41.28 127.977 41.28C127.977 41.28 127.978 41.28 127.978 41.28C127.978 41.28 127.978 41.28 127.979 41.28C127.979 41.28 127.979 41.28 127.98 41.28C127.98 41.28 127.98 41.28 127.98 41.28C127.981 41.28 127.981 41.28 127.981 41.28C127.981 41.28 127.982 41.28 127.982 41.28C127.982 41.28 127.982 41.28 127.983 41.28C127.983 41.28 127.983 41.28 127.983 41.28C127.984 41.28 127.984 41.28 127.984 41.28C127.984 41.28 127.985 41.28 127.985 41.28C127.985 41.28 127.986 41.28 127.986 41.28C127.986 41.28 127.986 41.28 127.987 41.28C127.987 41.28 127.987 41.28 127.987 41.28C127.988 41.28 127.988 41.28 127.988 41.28C127.988 41.28 127.989 41.28 127.989 41.28C127.989 41.28 127.989 41.28 127.99 41.28C127.99 41.28 127.99 41.28 127.99 41.28C127.991 41.28 127.991 41.28 127.991 41.28C127.992 41.28 127.992 41.28 127.992 41.28C127.992 41.28 127.993 41.28 127.993 41.28C127.993 41.28 127.993 41.28 127.994 41.28C127.994 41.28 127.994 41.28 127.994 41.28C127.995 41.28 127.995 41.28 127.995 41.28C127.995 41.28 127.996 41.28 127.996 41.28C127.996 41.28 127.996 41.28 127.997 41.28C127.997 41.28 127.997 41.28 127.998 41.28C127.998 41.28 127.998 41.28 127.998 41.28C127.999 41.28 127.999 41.28 127.999 41.28C127.999 41.28 128 41.28 128 41.28C128 41.28 128 41.28 128.001 41.28C128.001 41.28 128.001 41.28 128.001 41.28C128.002 41.28 128.002 41.28 128.002 41.28C128.002 41.28 128.003 41.28 128.003 41.28C128.003 41.28 128.003 41.28 128.004 41.28C128.004 41.28 128.004 41.28 128.005 41.28C128.005 41.28 128.005 41.28 128.005 41.28C128.006 41.28 128.006 41.28 128.006 41.28C128.006 41.28 128.007 41.28 128.007 41.28C128.007 41.28 128.007 41.28 128.008 41.28C128.008 41.28 128.008 41.28 128.008 41.28C128.009 41.28 128.009 41.28 128.009 41.28C128.009 41.28 128.01 41.28 128.01 41.28C128.01 41.28 128.011 41.28 128.011 41.28C128.011 41.28 128.011 41.28 128.012 41.28C128.012 41.28 128.012 41.28 128.012 41.28C128.013 41.28 128.013 41.28 128.013 41.28C128.013 41.28 128.014 41.28 128.014 41.28C128.014 41.28 128.014 41.28 128.015 41.28C128.015 41.28 128.015 41.28 128.015 41.28C128.016 41.28 128.016 41.28 128.016 41.28C128.017 41.28 128.017 41.28 128.017 41.28C128.017 41.28 128.018 41.28 128.018 41.28C128.018 41.28 128.018 41.28 128.019 41.28C128.019 41.28 128.019 41.28 128.019 41.28C128.02 41.28 128.02 41.28 128.02 41.28C128.02 41.28 128.021 41.28 128.021 41.28C128.021 41.28 128.021 41.28 128.022 41.28C128.022 41.28 128.022 41.28 128.023 41.28C128.023 41.28 128.023 41.28 128.023 41.28C128.024 41.28 128.024 41.28 128.024 41.28C128.024 41.28 128.025 41.28 128.025 41.28C128.025 41.28 128.025 41.28 128.026 41.28C128.026 41.28 128.026 41.28 128.026 41.28C128.027 41.28 128.027 41.28 128.027 41.28C128.027 41.28 128.028 41.28 128.028 41.28C128.028 41.28 128.028 41.28 128.029 41.28C128.029 41.28 128.029 41.28 128.03 41.28C128.03 41.28 128.03 41.28 128.03 41.28C128.031 41.28 128.031 41.28 128.031 41.28C128.031 41.28 128.032 41.28 128.032 41.28C128.032 41.28 128.032 41.28 128.033 41.28C128.033 41.28 128.033 41.28 128.033 41.28C128.034 41.28 128.034 41.28 128.034 41.28C128.034 41.28 128.035 41.28 128.035 41.28C128.035 41.28 128.036 41.28 128.036 41.28C128.036 41.28 128.036 41.28 128.037 41.28C128.037 41.28 128.037 41.28 128.037 41.28C128.038 41.28 128.038 41.28 128.038 41.28C128.038 41.28 128.039 41.28 128.039 41.28C128.039 41.28 128.039 41.28 128.04 41.28C128.04 41.28 128.04 41.28 128.04 41.28C128.041 41.28 128.041 41.28 128.041 41.28C128.042 41.28 128.042 41.28 128.042 41.28C128.042 41.28 128.043 41.28 128.043 41.28C128.043 41.28 128.043 41.28 128.044 41.28C128.044 41.28 128.044 41.28 128.044 41.28C128.045 41.28 128.045 41.28 128.045 41.28C128.045 41.28 128.046 41.28 128.046 41.28C128.046 41.28 128.046 41.28 128.047 41.28C128.047 41.28 128.047 41.28 128.048 41.28C128.048 41.28 128.048 41.28 128.048 41.28C128.049 41.28 128.049 41.28 128.049 41.28C128.049 41.28 128.05 41.28 128.05 41.28C128.05 41.28 128.05 41.28 128.051 41.28C128.051 41.28 128.051 41.28 128.051 41.28C128.052 41.28 128.052 41.28 128.052 41.28C128.052 41.28 128.053 41.28 128.053 41.28C128.053 41.28 128.053 41.28 128.054 41.28C128.054 41.28 128.054 41.28 128.055 41.28C128.055 41.28 128.055 41.28 128.055 41.28C128.056 41.28 128.056 41.28 128.056 41.28C128.056 41.28 128.057 41.28 128.057 41.28C128.057 41.28 128.057 41.28 128.058 41.28C128.058 41.28 128.058 41.28 128.058 41.28C128.059 41.28 128.059 41.28 128.059 41.28C128.059 41.28 128.06 41.28 128.06 41.28C128.06 41.28 128.061 41.28 128.061 41.28C128.061 41.28 128.061 41.28 128.062 41.28C128.062 41.28 128.062 41.28 128.062 41.28C128.063 41.28 128.063 41.28 128.063 41.28C128.063 41.28 128.064 41.28 128.064 41.28V39.28ZM127.664 39.28C125.398 39.28 123.494 39.9646 122.069 41.4207L123.499 42.8193C124.474 41.8221 125.823 41.28 127.664 41.28V39.28ZM122.069 41.4207C120.63 42.8922 119.984 44.9529 119.984 47.44H121.984C121.984 45.2871 122.538 43.8011 123.499 42.8193L122.069 41.4207ZM119.984 47.44V58H121.984V47.44H119.984ZM120.984 57H117.144V59H120.984V57ZM133.277 58H132.277V59H133.277V58ZM133.277 36.8V35.8H132.277V36.8H133.277ZM137.117 36.8H138.117V35.8H137.117V36.8ZM137.117 58V59H138.117V58H137.117ZM133.317 32L132.61 32.7071L132.619 32.7167L132.629 32.726L133.317 32ZM133.317 28.44L132.629 27.714L132.619 27.7233L132.61 27.7329L133.317 28.44ZM137.037 28.44L136.33 29.1471L136.349 29.1667L136.37 29.1852L137.037 28.44ZM137.077 32L137.784 32.7071L137.793 32.6976L137.803 32.6877L137.077 32ZM134.277 58V36.8H132.277V58H134.277ZM133.277 37.8H137.117V35.8H133.277V37.8ZM136.117 36.8V58H138.117V36.8H136.117ZM137.117 57H133.277V59H137.117V57ZM135.197 31.72C134.686 31.72 134.312 31.565 134.004 31.274L132.629 32.726C133.335 33.395 134.214 33.72 135.197 33.72V31.72ZM134.024 31.2929C133.736 31.0049 133.597 30.6745 133.597 30.24H131.597C131.597 31.1922 131.938 32.0351 132.61 32.7071L134.024 31.2929ZM133.597 30.24C133.597 29.7674 133.744 29.4273 134.024 29.1471L132.61 27.7329C131.93 28.4127 131.597 29.2726 131.597 30.24H133.597ZM134.004 29.166C134.312 28.875 134.686 28.72 135.197 28.72V26.72C134.214 26.72 133.335 27.045 132.629 27.714L134.004 29.166ZM135.197 28.72C135.707 28.72 136.057 28.8743 136.33 29.1471L137.744 27.7329C137.057 27.0457 136.179 26.72 135.197 26.72V28.72ZM136.37 29.1852C136.66 29.4446 136.797 29.7447 136.797 30.16H138.797C138.797 29.1886 138.427 28.342 137.704 27.6948L136.37 29.1852ZM136.797 30.16C136.797 30.6331 136.649 30.9977 136.351 31.3123L137.803 32.6877C138.465 31.9889 138.797 31.1269 138.797 30.16H136.797ZM136.37 31.2929C136.104 31.5587 135.745 31.72 135.197 31.72V33.72C136.195 33.72 137.09 33.4012 137.784 32.7071L136.37 31.2929ZM147.889 56.84L147.403 57.7142L147.409 57.7174L147.889 56.84ZM143.929 53L143.067 53.5083L143.067 53.5083L143.929 53ZM143.929 41.8L143.067 41.2917L143.067 41.2917L143.929 41.8ZM147.889 38L148.364 38.88L148.368 38.8774L147.889 38ZM158.809 37.76L158.349 38.648L158.358 38.6529L158.368 38.6576L158.809 37.76ZM162.329 41.12L162.87 41.9608L163.657 41.4543L163.203 40.6357L162.329 41.12ZM159.409 43L158.577 43.5547L159.122 44.3736L159.95 43.8408L159.409 43ZM156.849 40.72L156.392 41.6096L156.406 41.6169L156.421 41.6237L156.849 40.72ZM147.329 43.48L148.192 43.9852L148.197 43.9761L147.329 43.48ZM147.329 51.36L146.46 51.8561L146.46 51.8561L147.329 51.36ZM149.929 53.96L150.418 53.0879L149.929 53.96ZM156.849 54.16L157.286 55.0593L157.296 55.0544L156.849 54.16ZM159.409 51.84L159.942 50.994L159.117 50.4744L158.577 51.2853L159.409 51.84ZM162.329 53.68L163.2 54.171L163.667 53.3416L162.862 52.834L162.329 53.68ZM158.809 57.08L159.268 57.968L159.274 57.9649L158.809 57.08ZM153.689 57.24C151.677 57.24 149.912 56.8069 148.368 55.9626L147.409 57.7174C149.278 58.7398 151.38 59.24 153.689 59.24V57.24ZM148.374 55.9658C146.847 55.1173 145.658 53.9624 144.79 52.4917L143.067 53.5083C144.119 55.2909 145.57 56.696 147.403 57.7142L148.374 55.9658ZM144.79 52.4917C143.931 51.0363 143.489 49.349 143.489 47.4H141.489C141.489 49.6643 142.006 51.7104 143.067 53.5083L144.79 52.4917ZM143.489 47.4C143.489 45.451 143.931 43.7637 144.79 42.3083L143.067 41.2917C142.006 43.0896 141.489 45.1357 141.489 47.4H143.489ZM144.79 42.3083C145.656 40.8401 146.842 39.7012 148.364 38.88L147.414 37.12C145.575 38.1121 144.121 39.5065 143.067 41.2917L144.79 42.3083ZM148.368 38.8774C149.912 38.0331 151.677 37.6 153.689 37.6V35.6C151.38 35.6 149.278 36.1002 147.409 37.1226L148.368 38.8774ZM153.689 37.6C155.471 37.6 157.017 37.9581 158.349 38.648L159.268 36.872C157.614 36.0152 155.746 35.6 153.689 35.6V37.6ZM158.368 38.6576C159.703 39.3133 160.725 40.2883 161.454 41.6043L163.203 40.6357C162.279 38.965 160.955 37.7 159.249 36.8624L158.368 38.6576ZM161.787 40.2792L158.867 42.1592L159.95 43.8408L162.87 41.9608L161.787 40.2792ZM160.241 42.4453C159.459 41.2723 158.472 40.3825 157.277 39.8163L156.421 41.6237C157.252 42.0175 157.972 42.6477 158.577 43.5547L160.241 42.4453ZM157.305 39.8304C156.173 39.2487 154.949 38.96 153.649 38.96V40.96C154.642 40.96 155.551 41.178 156.392 41.6096L157.305 39.8304ZM153.649 38.96C152.109 38.96 150.698 39.302 149.439 40.0079L150.418 41.7521C151.346 41.2313 152.415 40.96 153.649 40.96V38.96ZM149.439 40.0079C148.183 40.7125 147.188 41.7113 146.46 42.9839L148.197 43.9761C148.75 43.0087 149.487 42.2741 150.418 41.7521L149.439 40.0079ZM146.466 42.9748C145.719 44.2494 145.369 45.738 145.369 47.4H147.369C147.369 46.022 147.658 44.8972 148.192 43.9852L146.466 42.9748ZM145.369 47.4C145.369 49.0628 145.72 50.5601 146.46 51.8561L148.197 50.8639C147.657 49.9199 147.369 48.7772 147.369 47.4H145.369ZM146.46 51.8561C147.188 53.1287 148.183 54.1275 149.439 54.8321L150.418 53.0879C149.487 52.5659 148.75 51.8313 148.197 50.8639L146.46 51.8561ZM149.439 54.8321C150.698 55.538 152.109 55.88 153.649 55.88V53.88C152.415 53.88 151.346 53.6087 150.418 53.0879L149.439 54.8321ZM153.649 55.88C154.94 55.88 156.157 55.6085 157.286 55.0592L156.411 53.2608C155.567 53.6715 154.651 53.88 153.649 53.88V55.88ZM157.296 55.0544C158.48 54.4621 159.461 53.5642 160.241 52.3947L158.577 51.2853C157.97 52.1958 157.243 52.8446 156.401 53.2656L157.296 55.0544ZM158.875 52.686L161.795 54.526L162.862 52.834L159.942 50.994L158.875 52.686ZM161.457 53.189C160.727 54.4845 159.696 55.4827 158.343 56.1951L159.274 57.9649C160.961 57.0773 162.277 55.8088 163.2 54.171L161.457 53.189ZM158.349 56.192C157.017 56.8819 155.471 57.24 153.689 57.24V59.24C155.746 59.24 157.614 58.8248 159.268 57.968L158.349 56.192ZM171.42 57.24L170.98 58.1379L170.987 58.1413L171.42 57.24ZM168.22 54.2L167.34 54.6741L167.345 54.6843L167.351 54.6943L168.22 54.2ZM167.1 36.8V35.8H166.1V36.8H167.1ZM170.94 36.8H171.94V35.8H170.94V36.8ZM172.42 53.24L171.695 53.9283L171.704 53.9379L172.42 53.24ZM180.14 54L180.616 54.8797L180.625 54.8748L180.634 54.8697L180.14 54ZM182.42 51.6L183.31 52.0563L183.315 52.0472L182.42 51.6ZM183.22 36.8V35.8H182.22V36.8H183.22ZM187.06 36.8H188.06V35.8H187.06V36.8ZM187.06 58V59H188.06V58H187.06ZM183.42 58H182.42V59H183.42V58ZM183.42 52.28L184.35 51.9128L182.42 52.28H183.42ZM184.02 53.8L184.918 54.2404L185.113 53.8438L184.95 53.4328L184.02 53.8ZM180.9 57.08L181.387 57.9534L181.387 57.9534L180.9 57.08ZM176.22 57.24C174.53 57.24 173.083 56.9298 171.853 56.3387L170.987 58.1413C172.531 58.8835 174.283 59.24 176.22 59.24V57.24ZM171.86 56.3421C170.687 55.7669 169.767 54.8972 169.089 53.7057L167.351 54.6943C168.22 56.2228 169.433 57.3798 170.98 58.1379L171.86 56.3421ZM169.101 53.7259C168.454 52.5242 168.1 50.9657 168.1 49H166.1C166.1 51.1943 166.493 53.1025 167.34 54.6741L169.101 53.7259ZM168.1 49V36.8H166.1V49H168.1ZM167.1 37.8H170.94V35.8H167.1V37.8ZM169.94 36.8V48.56H171.94V36.8H169.94ZM169.94 48.56C169.94 50.7814 170.466 52.6332 171.695 53.9283L173.146 52.5517C172.401 51.7668 171.94 50.4986 171.94 48.56H169.94ZM171.704 53.9379C172.95 55.2167 174.648 55.8 176.66 55.8V53.8C175.045 53.8 173.917 53.3433 173.136 52.5421L171.704 53.9379ZM176.66 55.8C178.128 55.8 179.458 55.5056 180.616 54.8797L179.665 53.1203C178.849 53.561 177.859 53.8 176.66 53.8V55.8ZM180.634 54.8697C181.795 54.2104 182.691 53.2642 183.31 52.0563L181.53 51.1437C181.083 52.0158 180.458 52.6696 179.647 53.1303L180.634 54.8697ZM183.315 52.0472C183.933 50.8111 184.22 49.3703 184.22 47.76H182.22C182.22 49.1363 181.974 50.2555 181.526 51.1528L183.315 52.0472ZM184.22 47.76V36.8H182.22V47.76H184.22ZM183.22 37.8H187.06V35.8H183.22V37.8ZM186.06 36.8V58H188.06V36.8H186.06ZM187.06 57H183.42V59H187.06V57ZM184.42 58V52.28H182.42V58H184.42ZM182.49 52.6472L183.09 54.1672L184.95 53.4328L184.35 51.9128L182.49 52.6472ZM183.122 53.3596C182.52 54.5885 181.624 55.5315 180.413 56.2066L181.387 57.9534C182.95 57.0818 184.134 55.8382 184.918 54.2404L183.122 53.3596ZM180.413 56.2066C179.189 56.8894 177.799 57.24 176.22 57.24V59.24C178.108 59.24 179.838 58.8172 181.387 57.9534L180.413 56.2066ZM194.37 58H193.37V59H194.37V58ZM194.37 28.32V27.32H193.37V28.32H194.37ZM198.21 28.32H199.21V27.32H198.21V28.32ZM198.21 58V59H199.21V58H198.21ZM195.37 58V28.32H193.37V58H195.37ZM194.37 29.32H198.21V27.32H194.37V29.32ZM197.21 28.32V58H199.21V28.32H197.21ZM198.21 57H194.37V59H198.21V57ZM218.702 58H217.702V59H218.702V58ZM218.702 53.52H219.702V53.4026L219.675 53.2884L218.702 53.52ZM218.502 52.68H217.502V52.7974L217.53 52.9116L218.502 52.68ZM217.062 41.28L216.366 41.9973L216.376 42.0074L216.387 42.0172L217.062 41.28ZM209.142 40.56L209.459 41.5087L209.468 41.5055L209.477 41.5022L209.142 40.56ZM206.102 42.2L205.228 42.6856L205.817 43.7448L206.745 42.9662L206.102 42.2ZM204.502 39.32L203.875 38.541L203.219 39.0692L203.628 39.8056L204.502 39.32ZM208.422 37.32L208.708 38.2783L208.719 38.2751L208.422 37.32ZM222.342 58V59H223.342V58H222.342ZM207.582 57.44L207.169 58.3504L207.176 58.3538L207.582 57.44ZM204.862 55.24L204.03 55.7947L204.038 55.8055L204.862 55.24ZM204.702 48.88L203.845 48.3655L203.839 48.3746L203.834 48.3839L204.702 48.88ZM207.382 46.64L206.974 45.727L206.967 45.7303L207.382 46.64ZM219.142 45.8H220.142V44.8H219.142V45.8ZM219.142 48.56V49.56H220.142V48.56H219.142ZM208.702 49.52L208.01 48.7986L208.01 48.7986L208.702 49.52ZM208.942 54.36L208.33 55.1507L208.338 55.157L208.346 55.1631L208.942 54.36ZM216.142 54.32L215.637 53.4569L215.628 53.4625L216.142 54.32ZM218.502 51.52L219.463 51.2434L218.647 48.4068L217.571 51.1556L218.502 51.52ZM219.262 54.16L220.189 54.5348L220.319 54.2149L220.223 53.8834L219.262 54.16ZM216.582 57.16L217.073 58.0316L217.079 58.0277L217.086 58.0238L216.582 57.16ZM219.702 58V53.52H217.702V58H219.702ZM219.675 53.2884L219.475 52.4484L217.53 52.9116L217.73 53.7516L219.675 53.2884ZM219.502 52.68V45.04H217.502V52.68H219.502ZM219.502 45.04C219.502 43.2078 218.954 41.6575 217.738 40.5428L216.387 42.0172C217.091 42.6625 217.502 43.6188 217.502 45.04H219.502ZM217.759 40.5627C216.569 39.4065 214.858 38.92 212.822 38.92V40.92C214.573 40.92 215.689 41.3401 216.366 41.9973L217.759 40.5627ZM212.822 38.92C211.453 38.92 210.113 39.1535 208.807 39.6178L209.477 41.5022C210.572 41.1132 211.685 40.92 212.822 40.92V38.92ZM208.826 39.6113C207.527 40.0443 206.398 40.647 205.46 41.4338L206.745 42.9662C207.46 42.3663 208.358 41.8757 209.459 41.5087L208.826 39.6113ZM206.977 41.7144L205.377 38.8344L203.628 39.8056L205.228 42.6856L206.977 41.7144ZM205.129 40.099C206.109 39.3102 207.296 38.6994 208.708 38.2783L208.137 36.3617C206.508 36.8473 205.082 37.5698 203.875 38.541L205.129 40.099ZM208.719 38.2751C210.166 37.826 211.679 37.6 213.262 37.6V35.6C211.486 35.6 209.772 35.854 208.126 36.3649L208.719 38.2751ZM213.262 37.6C216.015 37.6 217.983 38.2685 219.314 39.4639L220.651 37.9761C218.835 36.3449 216.323 35.6 213.262 35.6V37.6ZM219.314 39.4639C220.606 40.6246 221.342 42.4667 221.342 45.2H223.342C223.342 42.12 222.505 39.6421 220.651 37.9761L219.314 39.4639ZM221.342 45.2V58H223.342V45.2H221.342ZM222.342 57H218.702V59H222.342V57ZM211.742 57.24C210.282 57.24 209.038 56.9926 207.988 56.5262L207.176 58.3538C208.527 58.9541 210.056 59.24 211.742 59.24V57.24ZM207.996 56.5296C206.965 56.061 206.21 55.4376 205.687 54.6745L204.038 55.8055C204.794 56.9091 205.853 57.7523 207.169 58.3504L207.996 56.5296ZM205.694 54.6853C205.168 53.8964 204.902 53.0109 204.902 52H202.902C202.902 53.3891 203.276 54.6636 204.03 55.7947L205.694 54.6853ZM204.902 52C204.902 51.0153 205.129 50.1483 205.571 49.3761L203.834 48.3839C203.209 49.4784 202.902 50.6913 202.902 52H204.902ZM205.56 49.3945C205.993 48.6721 206.711 48.0459 207.798 47.5497L206.967 45.7303C205.601 46.3541 204.531 47.2212 203.845 48.3655L205.56 49.3945ZM207.79 47.553C208.865 47.0727 210.389 46.8 212.422 46.8V44.8C210.243 44.8 208.406 45.0873 206.974 45.727L207.79 47.553ZM212.422 46.8H219.142V44.8H212.422V46.8ZM218.142 45.8V48.56H220.142V45.8H218.142ZM219.142 47.56H212.582V49.56H219.142V47.56ZM212.582 47.56C211.574 47.56 210.684 47.6434 209.932 47.8293C209.186 48.0139 208.513 48.3153 208.01 48.7986L209.395 50.2414C209.558 50.0847 209.865 49.9061 210.413 49.7707C210.954 49.6366 211.671 49.56 212.582 49.56V47.56ZM208.01 48.7986C207.151 49.6231 206.702 50.6552 206.702 51.84H208.702C208.702 51.2115 208.92 50.6969 209.395 50.2414L208.01 48.7986ZM206.702 51.84C206.702 53.1913 207.26 54.3225 208.33 55.1507L209.555 53.5693C208.971 53.1175 208.702 52.5687 208.702 51.84H206.702ZM208.346 55.1631C209.405 55.9484 210.789 56.28 212.382 56.28V54.28C211.042 54.28 210.133 53.9982 209.538 53.5569L208.346 55.1631ZM212.382 56.28C213.975 56.28 215.412 55.9246 216.657 55.1775L215.628 53.4625C214.74 53.9954 213.67 54.28 212.382 54.28V56.28ZM216.648 55.183C217.943 54.4247 218.875 53.3115 219.434 51.8844L217.571 51.1556C217.17 52.1819 216.528 52.9353 215.637 53.457L216.648 55.183ZM217.541 51.7966L218.301 54.4366L220.223 53.8834L219.463 51.2434L217.541 51.7966ZM218.335 53.7852C217.92 54.8132 217.187 55.6498 216.078 56.2962L217.086 58.0238C218.538 57.1769 219.592 56.0135 220.189 54.5348L218.335 53.7852ZM216.092 56.2884C215.003 56.9012 213.571 57.24 211.742 57.24V59.24C213.807 59.24 215.602 58.8588 217.073 58.0316L216.092 56.2884ZM239.711 57.28L240.145 56.379L240.145 56.379L239.711 57.28ZM236.191 54.28L235.43 53.6311L234.93 54.2172L235.369 54.8501L236.191 54.28ZM238.511 51.56L239.32 50.973L238.575 49.9443L237.75 50.9111L238.511 51.56ZM241.111 54.04L240.589 54.8933L240.603 54.9017L240.617 54.9097L241.111 54.04ZM249.151 33.48H250.151V32.48H249.151V33.48ZM239.031 33.48H238.031V34.48H239.031V33.48ZM239.031 30V29H238.031V30H239.031ZM253.111 30H254.111V29H253.111V30ZM250.871 56L250.151 55.3054L250.145 55.3119L250.871 56ZM244.351 57.32C242.842 57.32 241.445 57.0049 240.145 56.379L239.277 58.181C240.857 58.9418 242.553 59.32 244.351 59.32V57.32ZM240.145 56.379C238.859 55.7602 237.82 54.8739 237.012 53.7099L235.369 54.8501C236.375 56.2994 237.682 57.4131 239.277 58.181L240.145 56.379ZM236.952 54.9289L239.272 52.2089L237.75 50.9111L235.43 53.6311L236.952 54.9289ZM237.701 52.147C238.539 53.3025 239.499 54.227 240.589 54.8933L241.632 53.1867C240.802 52.6797 240.029 51.9508 239.32 50.973L237.701 52.147ZM240.617 54.9097C241.76 55.5581 243.011 55.88 244.351 55.88V53.88C243.344 53.88 242.435 53.6419 241.604 53.1703L240.617 54.9097ZM244.351 55.88C246.153 55.88 247.672 55.3388 248.715 54.1055C249.73 52.9043 250.151 51.2102 250.151 49.2H248.151C248.151 50.9764 247.772 52.1223 247.187 52.8145C246.629 53.4745 245.748 53.88 244.351 53.88V55.88ZM250.151 49.2V33.48H248.151V49.2H250.151ZM249.151 32.48H239.031V34.48H249.151V32.48ZM240.031 33.48V30H238.031V33.48H240.031ZM239.031 31H253.111V29H239.031V31ZM252.111 30V49H254.111V30H252.111ZM252.111 49C252.111 51.9773 251.397 54.0148 250.151 55.3054L251.59 56.6946C253.331 54.8918 254.111 52.2627 254.111 49H252.111ZM250.145 55.3119C248.927 56.597 247.056 57.32 244.351 57.32V59.32C247.405 59.32 249.882 58.4963 251.596 56.6881L250.145 55.3119ZM273.859 58H272.859V59H273.859V58ZM273.859 53.52H274.859V53.4026L274.831 53.2884L273.859 53.52ZM273.659 52.68H272.659V52.7974L272.686 52.9116L273.659 52.68ZM272.219 41.28L271.522 41.9973L271.532 42.0074L271.543 42.0172L272.219 41.28ZM264.299 40.56L264.615 41.5087L264.624 41.5055L264.634 41.5022L264.299 40.56ZM261.259 42.2L260.384 42.6856L260.973 43.7448L261.901 42.9662L261.259 42.2ZM259.659 39.32L259.032 38.541L258.375 39.0692L258.784 39.8056L259.659 39.32ZM263.579 37.32L263.864 38.2783L263.875 38.2751L263.579 37.32ZM277.499 58V59H278.499V58H277.499ZM262.739 57.44L262.325 58.3504L262.332 58.3538L262.739 57.44ZM260.019 55.24L259.186 55.7947L259.194 55.8055L260.019 55.24ZM259.859 48.88L259.001 48.3655L258.996 48.3746L258.99 48.3839L259.859 48.88ZM262.539 46.64L262.131 45.727L262.123 45.7303L262.539 46.64ZM274.299 45.8H275.299V44.8H274.299V45.8ZM274.299 48.56V49.56H275.299V48.56H274.299ZM263.859 49.52L263.166 48.7986L263.166 48.7986L263.859 49.52ZM264.099 54.36L263.486 55.1507L263.495 55.157L263.503 55.1631L264.099 54.36ZM271.299 54.32L270.793 53.4569L270.784 53.4625L271.299 54.32ZM273.659 51.52L274.62 51.2434L273.803 48.4068L272.727 51.1556L273.659 51.52ZM274.419 54.16L275.346 54.5348L275.475 54.2149L275.38 53.8834L274.419 54.16ZM271.739 57.16L272.229 58.0316L272.236 58.0277L272.242 58.0238L271.739 57.16ZM265.699 33.72L265.008 32.9971L263.205 34.72H265.699V33.72ZM271.139 28.52V27.52H270.738L270.448 27.7971L271.139 28.52ZM276.019 28.52L276.631 29.3109L278.945 27.52H276.019V28.52ZM269.299 33.72V34.72H269.64L269.911 34.5109L269.299 33.72ZM274.859 58V53.52H272.859V58H274.859ZM274.831 53.2884L274.631 52.4484L272.686 52.9116L272.886 53.7516L274.831 53.2884ZM274.659 52.68V45.04H272.659V52.68H274.659ZM274.659 45.04C274.659 43.2078 274.11 41.6575 272.894 40.5428L271.543 42.0172C272.247 42.6625 272.659 43.6188 272.659 45.04H274.659ZM272.915 40.5627C271.725 39.4065 270.014 38.92 267.979 38.92V40.92C269.73 40.92 270.845 41.3401 271.522 41.9973L272.915 40.5627ZM267.979 38.92C266.609 38.92 265.269 39.1535 263.964 39.6178L264.634 41.5022C265.728 41.1132 266.841 40.92 267.979 40.92V38.92ZM263.982 39.6113C262.683 40.0443 261.554 40.647 260.616 41.4338L261.901 42.9662C262.616 42.3663 263.514 41.8757 264.615 41.5087L263.982 39.6113ZM262.133 41.7144L260.533 38.8344L258.784 39.8056L260.384 42.6856L262.133 41.7144ZM260.286 40.099C261.266 39.3102 262.453 38.6994 263.864 38.2783L263.293 36.3617C261.665 36.8473 260.238 37.5698 259.032 38.541L260.286 40.099ZM263.875 38.2751C265.322 37.826 266.835 37.6 268.419 37.6V35.6C266.642 35.6 264.928 35.854 263.282 36.3649L263.875 38.2751ZM268.419 37.6C271.171 37.6 273.14 38.2685 274.47 39.4639L275.807 37.9761C273.991 36.3449 271.479 35.6 268.419 35.6V37.6ZM274.47 39.4639C275.762 40.6246 276.499 42.4667 276.499 45.2H278.499C278.499 42.12 277.662 39.6421 275.807 37.9761L274.47 39.4639ZM276.499 45.2V58H278.499V45.2H276.499ZM277.499 57H273.859V59H277.499V57ZM266.899 57.24C265.438 57.24 264.194 56.9926 263.145 56.5262L262.332 58.3538C263.683 58.9541 265.213 59.24 266.899 59.24V57.24ZM263.152 56.5296C262.121 56.061 261.367 55.4376 260.843 54.6745L259.194 55.8055C259.951 56.9091 261.009 57.7523 262.325 58.3504L263.152 56.5296ZM260.851 54.6853C260.325 53.8964 260.059 53.0109 260.059 52H258.059C258.059 53.3891 258.432 54.6636 259.187 55.7947L260.851 54.6853ZM260.059 52C260.059 51.0153 260.286 50.1483 260.727 49.3761L258.99 48.3839C258.365 49.4784 258.059 50.6913 258.059 52H260.059ZM260.716 49.3945C261.15 48.6721 261.867 48.0459 262.954 47.5497L262.123 45.7303C260.757 46.3541 259.688 47.2212 259.001 48.3655L260.716 49.3945ZM262.947 47.553C264.021 47.0727 265.545 46.8 267.579 46.8V44.8C265.399 44.8 263.562 45.0873 262.131 45.727L262.947 47.553ZM267.579 46.8H274.299V44.8H267.579V46.8ZM273.299 45.8V48.56H275.299V45.8H273.299ZM274.299 47.56H267.739V49.56H274.299V47.56ZM267.739 47.56C266.73 47.56 265.84 47.6434 265.088 47.8293C264.342 48.0139 263.669 48.3153 263.166 48.7986L264.551 50.2414C264.714 50.0847 265.022 49.9061 265.569 49.7707C266.111 49.6366 266.827 49.56 267.739 49.56V47.56ZM263.166 48.7986C262.307 49.6231 261.859 50.6552 261.859 51.84H263.859C263.859 51.2115 264.077 50.6969 264.551 50.2414L263.166 48.7986ZM261.859 51.84C261.859 53.1913 262.417 54.3225 263.486 55.1507L264.711 53.5693C264.127 53.1175 263.859 52.5687 263.859 51.84H261.859ZM263.503 55.1631C264.561 55.9484 265.946 56.28 267.539 56.28V54.28C266.198 54.28 265.289 53.9982 264.694 53.5569L263.503 55.1631ZM267.539 56.28C269.131 56.28 270.568 55.9246 271.813 55.1775L270.784 53.4625C269.896 53.9954 268.826 54.28 267.539 54.28V56.28ZM271.804 55.183C273.099 54.4247 274.031 53.3115 274.59 51.8844L272.727 51.1556C272.326 52.1819 271.685 52.9353 270.793 53.457L271.804 55.183ZM272.698 51.7966L273.458 54.4366L275.38 53.8834L274.62 51.2434L272.698 51.7966ZM273.491 53.7852C273.076 54.8132 272.343 55.6498 271.235 56.2962L272.242 58.0238C273.694 57.1769 274.748 56.0135 275.346 54.5348L273.491 53.7852ZM271.248 56.2884C270.159 56.9012 268.728 57.24 266.899 57.24V59.24C268.963 59.24 270.758 58.8588 272.229 58.0316L271.248 56.2884ZM266.39 34.4429L271.83 29.2429L270.448 27.7971L265.008 32.9971L266.39 34.4429ZM271.139 29.52H276.019V27.52H271.139V29.52ZM275.407 27.7291L268.687 32.9291L269.911 34.5109L276.631 29.3109L275.407 27.7291ZM269.299 32.72H265.699V34.72H269.299V32.72Z" fill="black" mask="url(#path-5-outside-1_115_67)"/>
</svg>
