<svg width="281" height="68" viewBox="0 0 281 68" fill="none" xmlns="http://www.w3.org/2000/svg">
<path d="M2 68L2 3" stroke="white" stroke-width="4"/>
<path d="M68 68L68 3.35913" stroke="white" stroke-width="4"/>
<path d="M10.592 67.8952V25.9983M34.7375 44.5377L59.4078 7.66846L59.1453 24.0082M34.7375 44.5377L10.592 7.66846V25.9983M34.7375 44.5377L28.6662 53.1266M59.1453 67.8952V24.0082M59.1453 24.0082L34.7375 62.2391L28.6662 53.1266M10.592 25.9983L28.6662 53.1266" stroke="white" stroke-width="4"/>
<path d="M89.8352 58V53.52L89.6352 52.68V45.04C89.6352 43.4133 89.1552 42.16 88.1952 41.28C87.2618 40.3733 85.8485 39.92 83.9552 39.92C82.7018 39.92 81.4752 40.1333 80.2752 40.56C79.0752 40.96 78.0618 41.5067 77.2352 42.2L75.6352 39.32C76.7285 38.44 78.0352 37.7733 79.5552 37.32C81.1018 36.84 82.7152 36.6 84.3952 36.6C87.3018 36.6 89.5418 37.3067 91.1152 38.72C92.6885 40.1333 93.4752 42.2933 93.4752 45.2V58H89.8352ZM82.8752 58.24C81.3018 58.24 79.9152 57.9733 78.7152 57.44C77.5418 56.9067 76.6352 56.1733 75.9952 55.24C75.3552 54.28 75.0352 53.2 75.0352 52C75.0352 50.8533 75.3018 49.8133 75.8352 48.88C76.3952 47.9467 77.2885 47.2 78.5152 46.64C79.7685 46.08 81.4485 45.8 83.5552 45.8H90.2752V48.56H83.7152C81.7952 48.56 80.5018 48.88 79.8352 49.52C79.1685 50.16 78.8352 50.9333 78.8352 51.84C78.8352 52.88 79.2485 53.72 80.0752 54.36C80.9018 54.9733 82.0485 55.28 83.5152 55.28C84.9552 55.28 86.2085 54.96 87.2752 54.32C88.3685 53.68 89.1552 52.7467 89.6352 51.52L90.3952 54.16C89.8885 55.4133 88.9952 56.4133 87.7152 57.16C86.4352 57.88 84.8218 58.24 82.8752 58.24ZM107.861 58.24C105.728 58.24 104.075 57.6667 102.901 56.52C101.728 55.3733 101.141 53.7333 101.141 51.6V32.16H104.981V51.44C104.981 52.5867 105.261 53.4667 105.821 54.08C106.408 54.6933 107.235 55 108.301 55C109.501 55 110.501 54.6667 111.301 54L112.501 56.76C111.915 57.2667 111.208 57.64 110.381 57.88C109.581 58.12 108.741 58.24 107.861 58.24ZM97.5414 39.96V36.8H111.061V39.96H97.5414ZM117.144 58V36.8H120.824V42.56L120.464 41.12C121.051 39.6533 122.037 38.5333 123.424 37.76C124.811 36.9867 126.517 36.6 128.544 36.6V40.32C128.384 40.2933 128.224 40.28 128.064 40.28C127.931 40.28 127.797 40.28 127.664 40.28C125.611 40.28 123.984 40.8933 122.784 42.12C121.584 43.3467 120.984 45.12 120.984 47.44V58H117.144ZM133.277 58V36.8H137.117V58H133.277ZM135.197 32.72C134.45 32.72 133.823 32.48 133.317 32C132.837 31.52 132.597 30.9333 132.597 30.24C132.597 29.52 132.837 28.92 133.317 28.44C133.823 27.96 134.45 27.72 135.197 27.72C135.943 27.72 136.557 27.96 137.037 28.44C137.543 28.8933 137.797 29.4667 137.797 30.16C137.797 30.88 137.557 31.4933 137.077 32C136.597 32.48 135.97 32.72 135.197 32.72ZM153.689 58.24C151.529 58.24 149.595 57.7733 147.889 56.84C146.209 55.9067 144.889 54.6267 143.929 53C142.969 51.3733 142.489 49.5067 142.489 47.4C142.489 45.2933 142.969 43.4267 143.929 41.8C144.889 40.1733 146.209 38.9067 147.889 38C149.595 37.0667 151.529 36.6 153.689 36.6C155.609 36.6 157.315 36.9867 158.809 37.76C160.329 38.5067 161.502 39.6267 162.329 41.12L159.409 43C158.715 41.96 157.862 41.2 156.849 40.72C155.862 40.2133 154.795 39.96 153.649 39.96C152.262 39.96 151.022 40.2667 149.929 40.88C148.835 41.4933 147.969 42.36 147.329 43.48C146.689 44.5733 146.369 45.88 146.369 47.4C146.369 48.92 146.689 50.24 147.329 51.36C147.969 52.48 148.835 53.3467 149.929 53.96C151.022 54.5733 152.262 54.88 153.649 54.88C154.795 54.88 155.862 54.64 156.849 54.16C157.862 53.6533 158.715 52.88 159.409 51.84L162.329 53.68C161.502 55.1467 160.329 56.28 158.809 57.08C157.315 57.8533 155.609 58.24 153.689 58.24ZM176.22 58.24C174.407 58.24 172.807 57.9067 171.42 57.24C170.06 56.5733 168.993 55.56 168.22 54.2C167.473 52.8133 167.1 51.08 167.1 49V36.8H170.94V48.56C170.94 50.64 171.433 52.2 172.42 53.24C173.433 54.28 174.847 54.8 176.66 54.8C177.993 54.8 179.153 54.5333 180.14 54C181.127 53.44 181.887 52.64 182.42 51.6C182.953 50.5333 183.22 49.2533 183.22 47.76V36.8H187.06V58H183.42V52.28L184.02 53.8C183.327 55.2133 182.287 56.3067 180.9 57.08C179.513 57.8533 177.953 58.24 176.22 58.24ZM194.37 58V28.32H198.21V58H194.37ZM218.702 58V53.52L218.502 52.68V45.04C218.502 43.4133 218.022 42.16 217.062 41.28C216.129 40.3733 214.716 39.92 212.822 39.92C211.569 39.92 210.342 40.1333 209.142 40.56C207.942 40.96 206.929 41.5067 206.102 42.2L204.502 39.32C205.596 38.44 206.902 37.7733 208.422 37.32C209.969 36.84 211.582 36.6 213.262 36.6C216.169 36.6 218.409 37.3067 219.982 38.72C221.556 40.1333 222.342 42.2933 222.342 45.2V58H218.702ZM211.742 58.24C210.169 58.24 208.782 57.9733 207.582 57.44C206.409 56.9067 205.502 56.1733 204.862 55.24C204.222 54.28 203.902 53.2 203.902 52C203.902 50.8533 204.169 49.8133 204.702 48.88C205.262 47.9467 206.156 47.2 207.382 46.64C208.636 46.08 210.316 45.8 212.422 45.8H219.142V48.56H212.582C210.662 48.56 209.369 48.88 208.702 49.52C208.036 50.16 207.702 50.9333 207.702 51.84C207.702 52.88 208.116 53.72 208.942 54.36C209.769 54.9733 210.916 55.28 212.382 55.28C213.822 55.28 215.076 54.96 216.142 54.32C217.236 53.68 218.022 52.7467 218.502 51.52L219.262 54.16C218.756 55.4133 217.862 56.4133 216.582 57.16C215.302 57.88 213.689 58.24 211.742 58.24ZM244.351 58.32C242.697 58.32 241.151 57.9733 239.711 57.28C238.271 56.5867 237.097 55.5867 236.191 54.28L238.511 51.56C239.284 52.6267 240.151 53.4533 241.111 54.04C242.097 54.6 243.177 54.88 244.351 54.88C247.551 54.88 249.151 52.9867 249.151 49.2V33.48H239.031V30H253.111V49C253.111 52.12 252.364 54.4533 250.871 56C249.404 57.5467 247.231 58.32 244.351 58.32ZM273.859 58V53.52L273.659 52.68V45.04C273.659 43.4133 273.179 42.16 272.219 41.28C271.285 40.3733 269.872 39.92 267.979 39.92C266.725 39.92 265.499 40.1333 264.299 40.56C263.099 40.96 262.085 41.5067 261.259 42.2L259.659 39.32C260.752 38.44 262.059 37.7733 263.579 37.32C265.125 36.84 266.739 36.6 268.419 36.6C271.325 36.6 273.565 37.3067 275.139 38.72C276.712 40.1333 277.499 42.2933 277.499 45.2V58H273.859ZM266.899 58.24C265.325 58.24 263.939 57.9733 262.739 57.44C261.565 56.9067 260.659 56.1733 260.019 55.24C259.379 54.28 259.059 53.2 259.059 52C259.059 50.8533 259.325 49.8133 259.859 48.88C260.419 47.9467 261.312 47.2 262.539 46.64C263.792 46.08 265.472 45.8 267.579 45.8H274.299V48.56H267.739C265.819 48.56 264.525 48.88 263.859 49.52C263.192 50.16 262.859 50.9333 262.859 51.84C262.859 52.88 263.272 53.72 264.099 54.36C264.925 54.9733 266.072 55.28 267.539 55.28C268.979 55.28 270.232 54.96 271.299 54.32C272.392 53.68 273.179 52.7467 273.659 51.52L274.419 54.16C273.912 55.4133 273.019 56.4133 271.739 57.16C270.459 57.88 268.845 58.24 266.899 58.24ZM265.699 33.72L271.139 28.52H276.019L269.299 33.72H265.699Z" fill="white"/>
</svg>
